<?xml version="1.0" encoding="UTF-8" standalone="no"?>
<!-- Created with Inkscape (http://www.inkscape.org/) -->

<svg
   version="1.1"
   id="svg182"
   width="738.80811"
   height="718.10504"
   viewBox="0 0 738.8081 718.10504"
   xmlns="http://www.w3.org/2000/svg"
   xmlns:svg="http://www.w3.org/2000/svg">
  <defs
     id="defs186" />
  <g
     id="g190"
     transform="matrix(1.3333333,0,0,1.3333333,0.00114666,1.2968245e-4)">
    <g
       id="g192">
      <path
         d="m 0.91,536.359 c -1.074,-1.441 -0.437,-0.797 0.375,-1.504 1.078,1.817 28.113,1.391 275.113,1.391 265.559,0 274.469,-1.223 275.735,-3.582 1.929,0.957 1.418,0.387 0.679,2.984 -1.273,1.661 -35.972,2.965 -276.285,2.93 C 96.594,538.559 1.605,537.414 0.855,536.598 Z m 15.57,-16.582 c -1.5,-2.265 -1.5,-2.265 -1.5,-250.336 0,-248.07 0,-248.07 1.446,-250.765 1.449,-2.696 1.449,-2.696 64.652,-2.696 63.199,0 57.199,0 58.649,2.696 1.449,2.695 1.449,2.695 1.621,50.308 0.152,42.879 0.277,47.762 1.23,49.094 1.457,2.031 9.707,1.86 10.906,-0.379 0.875,-1.629 1,-7.742 1.02,-48.828 0.019,-45.805 0.055,-47.047 1.344,-49.93 1.32,-2.961 1.32,-2.961 120.789,-2.961 119.468,0 119.468,0 120.683,2.793 1.153,2.649 1.215,5.286 1.215,49.93 0,41.274 0.125,47.367 1,48.996 1.199,2.239 9.445,2.41 10.903,0.379 0.957,-1.332 1.082,-6.215 1.234,-49.094 0.172,-47.613 0.48,-47.468 1.621,-50.308 1.105,-2.766 -4.555,-2.696 58.648,-2.696 63.204,0 63.204,0 64.649,2.696 1.449,2.695 1.449,2.695 1.449,250.765 0,248.071 0,248.071 -1.5,250.336 -1.457,2.192 -3.422,2.262 -64.621,2.262 -69.273,0 -58.324,0.508 -59.809,-6.769 -0.32,-1.571 -0.586,-23.196 -0.593,-48.055 -0.004,-24.863 -0.395,-45.867 -0.539,-46.758 -0.399,-2.477 -5.247,-2.879 -8.184,-2.238 -3.824,0.832 -4.258,-1.344 -4.258,51.082 0,47.59 0,47.59 -1.473,50.164 -1.468,2.574 -1.468,2.574 -120.707,2.574 -119.238,0 -119.238,0 -120.554,-3.117 -1.281,-3.035 -1.317,-4.371 -1.317,-49.492 0,-50.024 -1.441,-51.227 -6.218,-51.422 -6.489,0.058 -6.7,-0.235 -6.907,51.793 -0.183,47.715 -0.183,47.715 -1.683,49.976 -1.457,2.192 2.566,2.262 -58.598,2.262 -61.18,0 -63.144,-0.07 -64.598,-2.262 z m 122.551,-2.062 c 0,-1.723 0.903,-11.238 1.02,-49.422 0.148,-47.465 0.148,-47.465 1.781,-50.129 2.129,-3.465 10.418,-3.379 12.363,0.242 1.559,2.906 1.559,2.906 1.559,49.922 0,42.086 0.109,47.242 1.051,49.18 1.011,2.082 5.562,2.164 119.593,2.164 109.411,0 118.629,-0.152 119.704,-1.961 1.089,-1.832 1.164,-4.934 1.164,-49.18 0,-47.219 0,-47.219 1.558,-50.125 1.903,-3.539 10.074,-3.707 12.278,-0.484 1.656,2.426 1.656,2.426 1.836,50.133 0.14,38.386 0.347,48.086 1.05,49.668 0.809,1.804 -0.105,1.937 58.172,1.66 63.301,-0.301 63.301,-0.301 64.106,-3.262 1.203,-4.414 0.882,-493.984 -0.325,-496.234 -0.668,-1.242 -12.957,-1.539 -63.691,-1.539 -59.484,0 -56.926,0.113 -58,2.113 -1.043,1.937 -1.16,6.07 -1.453,49.965 -0.305,46.101 -0.363,47.914 -1.59,49.636 -2.07,2.915 -11.109,2.336 -12.625,-1.253 -1.281,-3.036 -1.316,-4.371 -1.316,-49.493 0,-38.183 -0.161,-46.777 -0.903,-48.671 -0.89,-2.258 -2.84,-2.297 -119.855,-2.297 -117.012,0 -118.965,0.039 -119.852,2.297 -0.742,1.894 -0.902,10.488 -0.902,48.671 0,45.122 -0.035,46.457 -1.316,49.493 -1.118,1.91 -2.5,2.445 -4.094,2.445 -2.207,0 -10.117,0.035 -10.129,-5.543 -0.141,-92.434 -0.281,-93.078 -1.445,-95.25 -1.075,-2 1.507,-2.113 -57.692,-2.113 -59.207,0 -62.617,0.113 -63.691,2.113 -1.082,2.016 -1.137,13.555 -1.137,248.703 0,207.27 0.141,246.906 0.871,248.551 0.801,1.797 6.055,1.957 63.957,1.957 57.891,0 57.953,0.008 57.953,-1.957 z M 32.562,501.199 c -11.121,-10.32 -10.996,-39.437 0.211,-49.121 3.539,-3.055 9.305,-2.953 12.832,0.227 2.977,2.683 6.149,9.043 7.133,14.312 0.754,4.016 0.41,4.438 -6.125,7.528 -2.527,1.195 -4.496,2.359 -4.371,2.589 0.125,0.231 2.336,1.496 4.914,2.809 2.574,1.316 5.051,2.613 5.496,2.887 1.176,0.718 -0.668,8.39 -3.226,13.414 -4.473,8.781 -10.953,10.84 -16.864,5.355 z m 28.149,-69.5 c -1.379,-2.73 -1.383,-2.879 -1.383,-58.465 0,-51.785 0.082,-55.91 1.137,-58.339 0.824,-1.895 4.828,-2.618 6.629,-2.618 1.804,0 2.804,0.723 3.629,2.618 1.05,2.41 1.14,6.183 1.148,48.355 0.008,34.457 0.207,46.469 0.813,48.699 0.8,2.961 0.8,2.961 12.757,3.551 11.618,0.574 11.993,0.672 13.172,3.387 1.688,3.89 1.547,9.121 -0.347,12.648 -1.559,2.906 -1.559,2.906 -17.368,2.906 -15.699,0 -18.816,-0.015 -20.187,-2.742 z m 36.43,-1.469 c 1.625,-2.117 1.918,-7.746 0.515,-9.91 -0.597,-0.925 -4.707,-1.465 -12.375,-1.625 -11.011,-0.226 -11.539,-0.343 -12.926,-2.929 -1.449,-2.696 -1.449,-2.696 -1.628,-50.239 -0.122,-32.074 -0.403,-48.047 -0.872,-49.093 -0.867,-1.946 -7.472,-2.032 -8.492,-0.133 -0.574,1.062 -0.765,15.222 -0.765,56.429 0,49.528 0.105,55.231 1.054,57.176 0.961,1.985 5.328,2.168 19.063,2.168 12.562,0 15.246,-0.301 16.426,-1.844 z m 106.746,2.731 c -1.379,-1.949 -2.438,-7.438 -1.942,-10.051 0.215,-1.144 0.973,-3.281 1.68,-4.746 1.289,-2.664 1.055,-1.457 72.098,-1.457 51.441,0 71.707,-0.84 72.847,0.129 1.871,1.59 3.219,6.957 2.625,10.453 -0.234,1.375 -1.031,3.543 -1.765,4.824 -1.321,2.285 -2.633,2.328 -72.918,2.328 -56.282,0 -71.801,-0.316 -72.625,-1.48 z m 144.48,-2.113 c 0.895,-0.891 1.231,-2.489 1.231,-5.848 0,-2.543 -0.262,-4.926 -0.582,-5.297 -0.325,-0.367 -32.981,-0.672 -72.575,-0.672 -57.168,0 -72.089,0.305 -72.492,1.489 -0.847,2.48 -0.59,7.714 0.469,9.695 0.898,1.668 8.289,1.859 71.859,1.859 47.633,0 71.266,-0.402 72.09,-1.226 z m 106.387,0.687 c -1.895,-3.527 -2.039,-8.758 -0.348,-12.648 1.18,-2.715 1.555,-2.813 13.168,-3.387 11.957,-0.59 11.957,-0.59 12.762,-3.551 0.605,-2.23 0.805,-14.269 0.812,-48.828 0.008,-44.281 0.051,-45.953 1.282,-48.242 1.824,-3.399 8.195,-3.539 10.148,-0.297 1.031,1.711 1.113,6.031 1.113,58.281 0,56.43 0,56.43 -1.472,59.004 -1.43,2.5 -4.926,2.574 -20.188,2.574 -15.719,0 -15.719,0 -17.277,-2.906 z m 36.504,-1.422 c 1.094,-1.843 1.16,-5.183 1.16,-57.175 0,-41.368 -0.191,-55.571 -0.762,-56.637 -0.984,-1.836 -7.48,-1.836 -8.465,0 -0.57,1.058 -0.761,13.453 -0.761,48.469 0,59.308 1.554,53.578 -14.645,53.968 -7.508,0.18 -11.887,0.75 -12.449,1.625 -1.191,1.844 -1.098,6.918 0.18,9.547 0.964,1.981 2.336,2.164 16.316,2.164 13.309,0 18.41,-0.25 19.426,-1.961 z M 119.551,327.68 c -1.875,-3.754 -1.934,-9.614 -0.133,-13.047 0.941,-1.789 2.816,-2.035 16.316,-2.129 8.391,-0.063 15.743,-0.082 16.34,-0.047 1.656,0.09 3.68,4.832 3.68,8.621 0,2.012 -0.633,4.559 -1.559,6.289 -1.562,2.906 -1.562,2.906 -17.453,2.906 -15.531,0 -15.922,-0.062 -17.191,-2.593 z m 33.519,-1.621 c 1.524,-1.989 1.801,-5.247 0.754,-8.887 -0.621,-2.172 -1.488,-2.293 -16.715,-2.293 -17.234,0 -17.582,0.121 -17.582,6.074 0,6.715 0.571,6.949 17.063,6.949 12.609,0 15.297,-0.3 16.48,-1.843 z m 44.352,1.843 c -0.699,-1.3 -1.277,-3.3 -1.285,-4.441 -0.008,-1.137 -0.012,-26.555 -0.008,-56.477 0.008,-50.359 0.09,-54.562 1.125,-56.476 1,-1.848 8.758,-2.078 22.375,-2.176 8.387,-0.062 15.742,-0.082 16.34,-0.047 1.656,0.09 3.679,4.832 3.679,8.621 0,2.016 -0.632,4.559 -1.562,6.289 -1.539,2.867 -1.703,2.907 -12.93,2.907 -10.207,0 -11.476,0.222 -12.422,2.164 -0.933,1.922 -1.05,6.496 -1.05,40.613 0,31.34 0.168,38.875 0.902,40.746 0.883,2.25 2.273,2.297 63.922,2.297 61.652,0 63.043,-0.043 63.926,-2.297 0.734,-1.871 0.902,-9.437 0.902,-40.953 0,-35.942 -0.082,-38.789 -1.164,-40.613 -0.988,-1.668 -2.836,-1.957 -12.422,-1.957 -11.105,0 -11.281,-0.04 -12.82,-2.907 -1.942,-3.621 -1.989,-7.89 -0.129,-11.812 1.429,-3.012 1.429,-3.012 17.617,-3.137 16.191,-0.121 22.191,-0.121 23.637,3.012 1.449,3.137 1.449,3.137 1.449,57.012 0,55.152 -0.078,57.039 -2.488,60.484 -0.778,1.113 -23.336,1.453 -78.664,1.48 -70.829,0.039 -77.676,0.008 -78.93,-2.328 z m 156.945,-1.226 c 1.192,-1.184 1.231,-3.071 1.231,-57.176 0,-41.938 -0.192,-56.305 -0.762,-57.371 -0.555,-1.027 -11.106,-1.418 -22.481,-1.418 -13.441,0 -15.859,0.269 -16.714,1.859 -1.293,2.41 -1.274,6.266 0.054,8.996 0.946,1.946 2.215,2.164 12.512,2.164 10.891,0 11.531,0.129 12.93,2.575 1.468,2.574 1.468,2.574 1.468,42.41 0,39.836 0,39.836 -1.64,42.703 -1.637,2.871 -1.637,2.871 -64.457,2.871 -62.817,0 -62.817,0 -64.457,-2.871 -1.641,-2.867 -1.641,-2.867 -1.641,-42.16 0,-37.957 0.047,-39.395 1.32,-42.406 1.317,-3.122 1.317,-3.122 12.711,-3.122 10.547,0 11.489,-0.175 12.664,-2.367 1.528,-2.843 1.633,-6.261 0.274,-8.793 -0.856,-1.59 -3.277,-1.859 -16.715,-1.859 -11.379,0 -21.93,0.391 -22.48,1.418 -0.571,1.066 -0.762,15.43 -0.762,57.355 0,52.02 0.078,56.016 1.109,57.141 1.559,1.687 154.145,1.738 155.836,0.051 z m 44.457,0.687 c -1.926,-3.586 -2.054,-9.191 -0.289,-12.484 1.195,-2.223 2.192,-2.379 16.367,-2.555 8.301,-0.101 15.649,-0.09 16.328,0.031 3.504,0.61 4.899,10.719 2.141,15.504 -1.324,2.297 -2.168,2.414 -17.187,2.414 -15.801,0 -15.801,0 -17.36,-2.906 z m 33.668,-1.32 c 1.18,-2.203 1.317,-7.731 0.235,-9.742 -0.551,-1.031 -5.176,-1.422 -16.821,-1.422 -15.222,0 -16.09,0.121 -16.715,2.293 -0.941,3.277 -0.812,6.078 0.395,8.566 0.965,1.985 2.34,2.164 16.48,2.164 13.176,0 15.575,-0.269 16.426,-1.859 z M 32.039,287.652 c -1.398,-4.398 -2.285,-4.464 -3.965,-0.293 -1.707,4.231 -2.383,2.473 -2.969,-7.73 -0.445,-7.723 0.594,-27.426 1.633,-31.047 1.149,-3.992 4.403,-5.32 13.055,-5.32 11.738,0 12.34,1 13.348,22.183 0.464,9.688 0.004,20.457 -1,23.403 -0.496,1.464 -0.871,1.164 -2.188,-1.786 -1.59,-3.55 -1.59,-3.55 -3.348,0.305 -2.175,4.785 -3.535,4.86 -5.351,0.285 -0.774,-1.953 -1.77,-3.55 -2.207,-3.55 -0.438,0 -1.305,1.597 -1.926,3.55 -0.715,2.258 -1.641,3.555 -2.539,3.555 -0.902,0 -1.828,-1.297 -2.543,-3.555 z M 35,265.164 c 0,-1.578 -0.426,-2.367 -1.273,-2.367 -0.844,0 -1.27,0.789 -1.27,2.367 0,1.578 0.426,2.367 1.27,2.367 0.847,0 1.273,-0.789 1.273,-2.367 z m 10.805,0.25 c 0,-1.266 -0.512,-2.187 -1.274,-2.293 -0.867,-0.121 -1.269,0.551 -1.269,2.113 0,1.508 0.437,2.297 1.269,2.297 0.797,0 1.274,-0.789 1.274,-2.117 z m 14.906,-42.055 c 0,-3.062 -1.383,-2.882 -1.383,-58.371 0,-46.14 0.152,-56.023 0.902,-57.929 0.836,-2.137 4.993,-2.336 19.618,-2.887 16.261,-0.613 18.699,-0.102 19.566,4.105 0.828,4.02 0.395,8.532 -1.059,11.075 -1.394,2.441 -2.05,2.574 -12.589,2.574 -8.598,0 -11.399,0.383 -12.352,1.679 -1.184,1.61 -1.242,3.735 -1.414,49.391 -0.18,46.895 -0.203,47.754 -1.543,50.406 -1.816,3.602 -7.918,3.582 -9.746,-0.039 z m 8.879,-1.488 c 0.875,-1.629 1,-7.676 1,-48.445 0,-59.016 -1.399,-53.867 14.629,-53.867 12.269,0 13.336,-0.52 13.336,-6.508 0,-6.246 -0.711,-6.512 -17.477,-6.512 -13.226,0 -18.625,0.27 -19.48,1.859 -0.879,1.637 -1,8.426 -1,56.735 0,59.656 -0.063,58.597 3.496,58.597 0.824,0 4.949,-0.835 5.496,-1.859 z m 50.406,2.746 c -1.922,-2.715 -2.398,-7.301 -1.219,-11.699 1.067,-3.984 1.067,-3.984 16.84,-4.574 8.676,-0.328 16.371,-0.18 17.106,0.324 3.254,2.254 4.015,9.785 1.472,14.523 -1.562,2.907 -1.562,2.907 -17.355,2.907 -11.656,0 -16.074,-0.387 -16.844,-1.481 z m 33.324,-2.844 c 1.305,-2.199 1.485,-5.359 0.504,-8.773 -0.621,-2.172 -1.488,-2.289 -16.715,-2.289 -17.234,0 -17.582,0.117 -17.582,6.07 0,6.731 0.547,6.949 17.317,6.949 13.359,0 15.465,-0.25 16.476,-1.957 z m 245.504,1.418 c -1.926,-3.586 -2.054,-9.191 -0.289,-12.48 1.195,-2.227 2.192,-2.379 16.367,-2.559 8.301,-0.101 15.649,-0.09 16.328,0.032 3.504,0.609 4.899,10.718 2.141,15.504 -1.324,2.296 -2.168,2.414 -17.187,2.414 -15.801,0 -15.801,0 -17.36,-2.907 z m 33.668,-1.32 c 1.18,-2.203 1.317,-7.73 0.235,-9.742 -0.551,-1.027 -5.102,-1.418 -16.477,-1.418 -13.441,0 -15.863,0.269 -16.715,1.859 -1.297,2.41 -1.273,6.266 0.051,8.996 0.965,1.985 2.34,2.164 16.48,2.164 13.176,0 15.575,-0.269 16.426,-1.859 z m 50.067,1.531 c -1.336,-2.652 -1.364,-3.511 -1.539,-50.406 -0.172,-45.656 -0.235,-47.781 -1.415,-49.391 -0.953,-1.296 -3.769,-1.679 -12.441,-1.679 -10.894,0 -11.246,-0.078 -12.59,-2.738 -1.586,-3.149 -1.808,-8.739 -0.48,-12.129 0.836,-2.137 1.996,-2.336 16.621,-2.887 16.262,-0.613 21.695,-0.102 22.562,4.105 0.227,1.106 0.414,26.977 0.414,57.5 0,55.493 0,55.493 -1.39,57.907 -1.887,3.269 -8.016,3.136 -9.742,-0.286 z m 8.863,-1.531 c 0.879,-1.637 0.996,-8.469 0.996,-57.176 0,-41.445 -0.191,-55.672 -0.762,-56.738 -0.551,-1.027 -8.101,-1.418 -19.48,-1.418 -17.024,0 -17.711,0.254 -17.711,6.508 0,6 1.058,6.512 13.418,6.512 16.144,0 14.547,-5.844 14.547,53.132 0,51.395 -0.028,51.039 3.492,51.039 0.824,0 4.949,-0.835 5.5,-1.859 z m -288,-102.312 c -1.863,-3.465 -1.91,-9.832 -0.102,-13.301 1.008,-1.93 5.559,-2.063 73.2,-2.113 72.125,-0.055 72.125,-0.055 73.554,3.007 1.852,3.977 1.813,7.743 -0.129,11.641 -1.558,3.133 -1.558,3.133 -73.406,3.133 -71,0 -71.863,-0.031 -73.117,-2.367 z m 144.945,-1.223 c 1.41,-1.406 1.711,-8.063 0.469,-10.379 -0.586,-1.086 -17.524,-1.418 -72.375,-1.418 -78.313,0 -73.199,-0.469 -73.199,6.719 0,6.601 -3.465,6.301 73.093,6.301 47.579,0 71.188,-0.403 72.012,-1.223 z M 255.434,79.312 c -1.715,-4.328 -2.598,-4.468 -3.711,-0.593 -1.055,3.679 -2.274,3.808 -2.778,0.297 -0.652,-4.52 -0.441,-27.961 0.301,-33.438 0.387,-2.851 1.195,-6.016 1.797,-7.035 1.84,-3.102 10.656,-4.801 16.676,-3.215 2.871,0.754 5.683,2.195 6.293,3.215 0.601,1.019 1.41,4.184 1.797,7.035 0.738,5.465 0.972,31.031 0.316,34.227 -0.57,2.769 -1.828,2.277 -2.793,-1.086 -1.113,-3.875 -1.996,-3.735 -3.715,0.593 -1.808,4.555 -3.125,4.485 -5.332,-0.296 l -1.773,-3.848 -1.629,3.848 c -2.024,4.789 -3.629,4.879 -5.445,0.296 z m 6.457,-28.273 c 0,-2.461 -2.329,-4.238 -2.735,-2.082 -0.437,2.313 0.274,4.313 1.532,4.313 0.753,0 1.203,-0.832 1.203,-2.231 z m 10.804,-0.008 c 0,-2.5 -1.644,-4.234 -2.261,-2.386 -0.598,1.8 0.191,4.628 1.289,4.628 0.535,0 0.972,-1.007 0.972,-2.242 z m 239.188,14.707 c -1.903,-2.484 -2.199,-5.953 -0.758,-8.832 1.605,-3.211 4.023,-3.129 5.27,0.18 1.308,3.476 1.246,5.176 -0.282,8.023 -1.515,2.821 -2.441,2.961 -4.23,0.629 z M 552.445,4.199 C 551.359,1.84 542.668,2.371 276.562,2.371 276.07,-1.137 1.156,4.945 1.152,4.098 1.152,2.816 -0.051,2.223 0.5,1.828 1.051,1.434 129.773,0.004 276.562,0 488.43,-0.008 551.703,0.477 552.711,1.645 c 1.457,1.621 0.519,1.894 -0.266,2.554 z"
         style="fill:#501644;fill-opacity:1;fill-rule:nonzero;stroke:none"
         id="path194" />
      <g
         id="g196">
        <path
           d="M 1.172,3.02 1.133,535.551"
           style="fill:#501644;fill-opacity:1;fill-rule:nonzero;stroke:#501644;stroke-width:2.26772;stroke-linecap:round;stroke-linejoin:miter;stroke-miterlimit:4;stroke-dasharray:none;stroke-opacity:1"
           id="path198" />
      </g>
      <g
         id="g200">
        <path
           d="m 552.398,3.418 c 1.028,3.391 0.196,523.195 -0.023,529.812"
           style="fill:#501644;fill-opacity:1;fill-rule:nonzero;stroke:#501644;stroke-width:2.40945;stroke-linecap:round;stroke-linejoin:round;stroke-miterlimit:4;stroke-dasharray:none;stroke-opacity:1"
           id="path202" />
      </g>
      <path
         d="m 243.879,28.664 h 36.574 v 63.012 h -36.574 z"
         style="fill:#ffffff;fill-opacity:1;fill-rule:nonzero;stroke:none"
         id="path204" />
      <path
         d="m 503.543,38.883 h 20.113 V 83.16 h -20.113 z"
         style="fill:#ffffff;fill-opacity:1;fill-rule:nonzero;stroke:none"
         id="path206" />
      <path
         d="M 19.875,227.914 H 58.277 V 306.25 H 19.875 Z"
         style="fill:#ffffff;fill-opacity:1;fill-rule:nonzero;stroke:none"
         id="path208" />
      <path
         d="m 21.703,430.566 h 34.746 v 81.742 H 21.703 Z"
         style="fill:#ffffff;fill-opacity:1;fill-rule:nonzero;stroke:none"
         id="path210" />
      <path
         d="m 384.273,378.375 c -2.222,3.035 -3.144,4.867 -3.882,8.5 h 15.199 v -5.98 l 17.305,10.23 -17.305,9.598 v -5.981 h -15.199 c 0.761,3.594 1.375,5.383 3.882,8.344 2.254,2.758 3.704,3.973 6.465,5.82 2.778,1.477 4.364,2.102 7.278,2.52 4.574,0.219 7.039,0.086 10.996,-1.258 3.703,-1.613 5.543,-2.613 8.086,-5.508 2.558,-2.508 3.07,-3.937 4.527,-7.242 0.789,-2.371 1.039,-3.766 0.969,-6.293 0.082,-2.5 -0.289,-3.945 -0.934,-6.465 l -0.035,-0.144 c -1.25,-3.27 -2.348,-4.903 -4.527,-7.715 -2.586,-2.508 -4.336,-3.692 -8.086,-5.348 -3.95,-1.215 -6.34,-1.5 -10.996,-1.101 -3.813,0.871 -5.344,1.429 -7.278,2.515 -2.797,1.543 -4.203,2.774 -6.465,5.508 z"
         style="fill:#0096de;fill-opacity:1;fill-rule:nonzero;stroke:none"
         id="path212" />
      <path
         d="m 369.211,382.781 c -1.59,-3.39 -2.758,-5.082 -5.621,-7.519 l -7.598,12.812 5.32,2.988 -17.753,9.469 0.109,-19.383 5.32,2.989 7.602,-12.809 c -3.578,-1.156 -5.477,-1.535 -9.363,-0.902 -3.582,0.523 -5.387,1.136 -8.415,2.543 -2.703,1.601 -4.05,2.625 -5.878,4.871 -2.481,3.746 -3.594,5.89 -4.379,9.898 -0.418,3.926 -0.446,5.981 0.859,9.571 0.949,3.41 1.965,4.554 4.18,7.433 1.715,1.852 2.828,2.762 5.113,3.965 2.188,1.316 3.656,1.731 6.219,2.445 l 0.148,0.043 c 3.531,0.582 5.535,0.473 9.125,0.039 3.528,-0.922 5.457,-1.808 8.805,-4.136 3.055,-2.723 4.504,-4.594 6.476,-8.719 1.133,-3.652 1.403,-5.219 1.399,-7.391 0.031,-3.133 -0.363,-4.929 -1.668,-8.207 z"
         style="fill:#30b808;fill-opacity:1;fill-rule:nonzero;stroke:none"
         id="path214" />
      <path
         d="m 372.895,368.07 c 3.808,0.356 5.902,0.215 9.5,-0.976 l -7.598,-12.813 -5.324,2.989 0.453,-19.696 17.191,9.781 -5.32,2.993 7.601,12.808 c 2.817,-2.437 4.102,-3.847 5.481,-7.441 1.324,-3.277 1.683,-5.106 1.945,-8.363 -0.074,-3.079 -0.308,-4.723 -1.398,-7.391 -2.09,-3.965 -3.442,-5.973 -6.617,-8.637 -3.282,-2.316 -5.094,-3.367 -8.942,-4.062 -3.512,-0.907 -5.039,-0.621 -8.707,-0.196 -2.504,0.52 -3.871,1.004 -6.086,2.329 -2.262,1.183 -3.363,2.214 -5.285,4.019 l -0.109,0.106 c -2.285,2.683 -3.192,4.425 -4.598,7.671 -0.941,3.43 -1.121,5.5 -0.719,9.489 0.895,3.937 1.836,6.09 4.516,9.82 2.683,2.777 3.945,3.789 5.879,4.871 2.769,1.59 4.566,2.16 8.137,2.699 z"
         style="fill:#ff7d17;fill-opacity:1;fill-rule:nonzero;stroke:none"
         id="path216" />
      <path
         d="m 160.324,28.535 21.289,60.168 -2.726,-2.254 1.468,34.43 12.379,-1.547 -2.593,-39.312 13.851,-59.368 -10.09,0.571 -12.043,49.621 0.703,-9.606 -11.558,-36.113 -10.68,3.41 m 44.852,-6.301 -13.586,58.469 0.664,6.149 12.922,-64.618 m -32.469,2.504 9.77,29.758 -7.059,-30.269 -2.711,0.511 m 3.164,59.836 2.387,20.301 -0.61,-18.965 -1.777,-1.336"
         style="fill:#501644;fill-opacity:1;fill-rule:nonzero;stroke:none"
         id="path218" />
      <path
         d="m 207.594,50.648 4.894,9.247 5.824,-6.211 7.954,1.98 1.863,6.52 -10.711,-0.145 -11.629,7.609 -0.613,18.454 10.715,10.98 9.433,-1.59 5.235,-5.82 -1.399,5.734 10.985,-0.59 -2.497,-20.574 0.551,-20.137 -8.511,-11.46 -14.454,-0.309 -7.64,6.312 m 21.023,24.395 0.559,9.48 -4.949,2.672 -4.641,0.133 -5.078,-3.461 -0.356,-9.371 5.211,-3.773 7.004,0.949 2.25,3.371 m -14.519,-15.355 8.031,-3.922 -3.363,-0.782 -4.668,4.704 m 14.601,38.949 -0.937,1.855 11.426,-2.301 -10.489,0.446 m -23.457,-8.735 0.188,2.278 8.746,6.996 -8.934,-9.274 m 22.25,-12.511 -1.824,7.804 2.664,-1.59 -0.84,-6.214 m -2.187,-20.473 -2.184,3.73 3.652,0.407 -1.468,-4.137 m -9.813,18.227 0.172,7.214 1.793,-8.644 -1.965,1.43 M 206,48.566 l 1.047,0.907 6.863,-5.426 -7.91,4.519"
         style="fill:#501644;fill-opacity:1;fill-rule:nonzero;stroke:none"
         id="path220" />
      <path
         d="m 243.234,27.371 1.11,39.231 v 31.511 l 10.39,-0.324 -1.414,-48.875 4.035,-8.519 6.36,1.125 3.531,8.199 -0.203,48.394 9.887,0.641 -0.203,-50.481 4.039,-8.199 6.152,0.965 3.734,11.895 -1.312,43.089 10.996,-0.164 -0.606,-28.293 -1.109,-28.941 -6.152,-12.539 -11,-1.77 -5.344,2.414 -5.25,9.645 0.91,-6.75 -7.367,-4.02 -7.063,0.801 -3.832,6.434 -1.714,-5.469 h -8.575 m 37.934,14.633 -3.23,6.75 -0.098,47.269 3.328,-54.019 m 19.773,26.848 0.305,27.171 2.016,-1.289 -2.321,-25.882 m -46.511,-19.293 7.769,-6.43 -4.238,-0.965 -3.531,7.395 m 39.347,-23.313 4.844,10.289 -2.32,-8.84 -2.524,-1.449 m -27.136,-1.766 5.347,3.696 v -2.571 l -5.347,-1.125 m -14.024,2.891 0.906,3.055 0.707,-4.02 -1.613,0.965"
         style="fill:#501644;fill-opacity:1;fill-rule:nonzero;stroke:none"
         id="path222" />
      <path
         d="m 319.996,21.566 -10.18,5.95 1.645,38.097 -1.129,31.137 10.074,-0.633 v -8.734 l 5.242,7.34 12.235,-0.758 8.429,-13.922 1.129,-26.453 -8.632,-13.922 -11.309,-2.281 -8.02,7.468 0.516,-23.289 m 7.504,28.606 5.754,0.887 3.187,5.316 1.442,21.391 -6.684,7.718 -5.961,0.254 -4.523,-6.582 V 58.652 l 6.785,-8.48 m -17.168,15.566 -3.187,30.633 1.953,-0.379 1.234,-30.254 m 11.512,-43.539 -1.235,19.367 3.395,-18.605 -2.16,-0.762 m 25.289,59.996 -7.195,11.645 3.906,-1.395 3.289,-10.25 m -19.121,-29.871 -6.063,6.707 -0.105,5.317 6.168,-12.024 m 12.441,-12.91 6.578,9.492 -3.394,-8.734 -3.184,-0.758 m -14.598,44.934 h 5.036 l -0.102,-1.774 -4.934,1.774 m -4.523,7.34 0.41,3.921 2.055,-0.25 -2.465,-3.671"
         style="fill:#501644;fill-opacity:1;fill-rule:nonzero;stroke:none"
         id="path224" />
      <path
         d="m 365.984,47.754 -11.062,7.996 -5.41,19.367 2.539,19.008 10.668,8.055 13.293,-0.422 9.734,-17.453 0.664,-17.825 -5.598,-14.414 -5.957,-3.98 -8.871,-0.332 m 3.704,12.051 5.828,2.117 1.871,8.594 -2.895,15.632 -5.449,4.809 -7.734,-2.406 -2.301,-8.446 3.867,-15.296 6.813,-5.004 m -0.153,1.675 -5.539,4.059 -3.305,12.242 8.844,-16.301 m 5.985,12.543 -5.973,14.965 4.078,-3.883 1.895,-11.082 m 10.613,12.446 -8.274,14.59 3.422,-1.582 4.852,-13.008 m -3.508,-33.52 4.18,10.93 -1.84,-9.445 -2.34,-1.485 m -33.996,25.278 -0.496,3.925 2.851,10.887 -2.355,-14.812"
         style="fill:#501644;fill-opacity:1;fill-rule:nonzero;stroke:none"
         id="path226" />
      <g
         id="g228"
         transform="matrix(-0.0113763,1,-1,-0.0113763,0,0)">
        <path
           d="m 364.094,-434.642 c 0.001,3.449 -2.8,6.251 -6.253,6.251 -3.449,0 -6.25,-2.8 -6.251,-6.253 0,-3.45 2.875,-6.252 6.25,-6.251 3.453,0 6.254,2.8 6.254,6.253 z"
           style="fill:#de87cd;fill-opacity:1;fill-rule:evenodd;stroke:#de87cd;stroke-width:1.66733;stroke-linecap:butt;stroke-linejoin:miter;stroke-miterlimit:4;stroke-dasharray:none;stroke-opacity:1"
           id="path230" />
      </g>
      <g
         id="g232"
         transform="matrix(-0.022438,1,-1,-0.022438,0,0)">
        <path
           d="m 402.869,-438.973 c -0.001,3.449 -2.801,6.25 -6.254,6.25 -3.449,-10e-4 -6.251,-2.802 -6.25,-6.251 10e-4,-3.453 2.875,-6.252 6.25,-6.253 3.454,0 6.251,2.801 6.254,6.254 z"
           style="fill:#de87cd;fill-opacity:1;fill-rule:evenodd;stroke:#de87cd;stroke-width:1.66702;stroke-linecap:butt;stroke-linejoin:miter;stroke-miterlimit:4;stroke-dasharray:none;stroke-opacity:1"
           id="path234" />
      </g>
      <g
         id="g236"
         transform="matrix(0.0109715,1,-1,0.0109715,0,0)">
        <path
           d="m 458.238,-424.754 c -0.002,3.45 -2.803,6.251 -6.252,6.252 -3.453,-0.003 -6.254,-2.803 -6.255,-6.252 0.002,-3.453 2.877,-6.254 6.252,-6.256 3.453,0.003 6.254,2.803 6.255,6.256 z"
           style="fill:#de87cd;fill-opacity:1;fill-rule:evenodd;stroke:#de87cd;stroke-width:1.66734;stroke-linecap:butt;stroke-linejoin:miter;stroke-miterlimit:4;stroke-dasharray:none;stroke-opacity:1"
           id="path238" />
      </g>
      <g
         id="g240"
         transform="matrix(1,0.962642,-0.962642,1,0,0)">
        <path
           d="m 471.895,38.246 c -10e-4,2.486 -2.018,4.505 -4.506,4.506 -2.486,-0.002 -4.506,-2.019 -4.506,-4.507 0.002,-2.485 2.074,-4.504 4.506,-4.505 2.486,10e-4 4.506,2.018 4.506,4.506 z"
           style="fill:#de87cd;fill-opacity:1;fill-rule:evenodd;stroke:#de87cd;stroke-width:1.20128;stroke-linecap:butt;stroke-linejoin:miter;stroke-miterlimit:4;stroke-dasharray:none;stroke-opacity:1"
           id="path242" />
      </g>
      <g
         id="g244"
         transform="matrix(1,-0.0119371,0.0119371,1,0,0)">
        <path
           d="m 473.987,493.244 c 0.002,3.449 -2.801,6.252 -6.254,6.253 -3.449,-0.002 -6.252,-2.801 -6.25,-6.254 -0.002,-3.449 2.876,-6.251 6.251,-6.253 3.453,0.002 6.251,2.801 6.253,6.254 z"
           style="fill:#de87cd;fill-opacity:1;fill-rule:evenodd;stroke:#de87cd;stroke-width:1.66732;stroke-linecap:butt;stroke-linejoin:miter;stroke-miterlimit:4;stroke-dasharray:none;stroke-opacity:1"
           id="path246" />
      </g>
      <g
         id="g248"
         transform="matrix(0.990509,-1,1,0.990509,0,0)">
        <path
           d="m 16.872,504.362 c -0.002,2.451 -1.991,4.441 -4.444,4.441 -2.451,0.003 -4.444,-1.989 -4.442,-4.44 0,-2.453 2.045,-4.443 4.443,-4.443 2.453,-0.001 4.443,1.989 4.443,4.442 z"
           style="fill:#de87cd;fill-opacity:1;fill-rule:evenodd;stroke:#de87cd;stroke-width:1.18466;stroke-linecap:butt;stroke-linejoin:miter;stroke-miterlimit:4;stroke-dasharray:none;stroke-opacity:1"
           id="path250" />
      </g>
      <g
         id="g252"
         transform="matrix(0.00240082,-1,1,0.00240082,0,0)">
        <path
           d="m -425.694,517.838 c 0,3.454 -2.798,6.253 -6.251,6.254 -3.453,0 -6.253,-2.802 -6.253,-6.255 -0.001,-3.449 2.875,-6.249 6.254,-6.249 3.45,-0.001 6.253,2.801 6.25,6.25 z"
           style="fill:#de87cd;fill-opacity:1;fill-rule:evenodd;stroke:#de87cd;stroke-width:1.66743;stroke-linecap:butt;stroke-linejoin:miter;stroke-miterlimit:4;stroke-dasharray:none;stroke-opacity:1"
           id="path254" />
      </g>
      <g
         id="g256"
         transform="matrix(0.00240082,-1,1,0.00240082,0,0)">
        <path
           d="m -371.733,517.838 c 0,3.453 -2.802,6.253 -6.255,6.253 -3.449,10e-4 -6.253,-2.801 -6.253,-6.251 -0.001,-3.453 2.875,-6.253 6.254,-6.253 3.45,0 6.253,2.802 6.254,6.251 z"
           style="fill:#de87cd;fill-opacity:1;fill-rule:evenodd;stroke:#de87cd;stroke-width:1.66743;stroke-linecap:butt;stroke-linejoin:miter;stroke-miterlimit:4;stroke-dasharray:none;stroke-opacity:1"
           id="path258" />
      </g>
      <g
         id="g260"
         transform="matrix(0.00240082,-1,1,0.00240082,0,0)">
        <path
           d="m -317.776,517.841 c 0,3.449 -2.802,6.253 -6.255,6.249 -3.449,10e-4 -6.253,-2.801 -6.253,-6.25 0.003,-3.453 2.879,-6.253 6.254,-6.253 3.454,-10e-4 6.253,2.801 6.254,6.254 z"
           style="fill:#de87cd;fill-opacity:1;fill-rule:evenodd;stroke:#de87cd;stroke-width:1.66743;stroke-linecap:butt;stroke-linejoin:miter;stroke-miterlimit:4;stroke-dasharray:none;stroke-opacity:1"
           id="path262" />
      </g>
      <g
         id="g264"
         transform="matrix(0.00240082,-1,1,0.00240082,0,0)">
        <path
           d="m -263.819,517.84 c 0,3.45 -2.802,6.253 -6.251,6.254 -3.453,-0.004 -6.253,-2.802 -6.253,-6.255 -0.001,-3.453 2.875,-6.253 6.25,-6.253 3.454,-0.001 6.253,2.801 6.254,6.254 z"
           style="fill:#de87cd;fill-opacity:1;fill-rule:evenodd;stroke:#de87cd;stroke-width:1.66743;stroke-linecap:butt;stroke-linejoin:miter;stroke-miterlimit:4;stroke-dasharray:none;stroke-opacity:1"
           id="path266" />
      </g>
      <g
         id="g268"
         transform="matrix(0.00233759,-1,1,0.00233759,0,0)">
        <path
           d="m -209.895,517.827 c 0,3.449 -2.798,6.252 -6.251,6.252 -3.453,0.001 -6.253,-2.801 -6.253,-6.254 0,-3.45 2.876,-6.253 6.251,-6.253 3.453,-10e-4 6.253,2.801 6.253,6.255 z"
           style="fill:#de87cd;fill-opacity:1;fill-rule:evenodd;stroke:#de87cd;stroke-width:1.66743;stroke-linecap:butt;stroke-linejoin:miter;stroke-miterlimit:4;stroke-dasharray:none;stroke-opacity:1"
           id="path270" />
      </g>
      <g
         id="g272"
         transform="matrix(0.00230513,-1,1,0.00230513,0,0)">
        <path
           d="m -152.951,517.817 c 0,3.45 -2.802,6.253 -6.255,6.253 -3.449,0 -6.253,-2.802 -6.253,-6.255 0,-3.449 2.876,-6.253 6.255,-6.253 3.45,0 6.253,2.802 6.253,6.255 z"
           style="fill:#de87cd;fill-opacity:1;fill-rule:evenodd;stroke:#de87cd;stroke-width:1.66743;stroke-linecap:butt;stroke-linejoin:miter;stroke-miterlimit:4;stroke-dasharray:none;stroke-opacity:1"
           id="path274" />
      </g>
      <g
         id="g276"
         transform="matrix(0.00265839,-1,1,0.00265839,0,0)">
        <path
           d="m -97.311,517.856 c 0.002,3.45 -2.8,6.25 -6.253,6.251 -3.453,0.002 -6.253,-2.799 -6.255,-6.253 0.003,-3.453 2.878,-6.253 6.253,-6.251 3.453,-0.001 6.254,2.8 6.255,6.253 z"
           style="fill:#de87cd;fill-opacity:1;fill-rule:evenodd;stroke:#de87cd;stroke-width:1.66743;stroke-linecap:butt;stroke-linejoin:miter;stroke-miterlimit:4;stroke-dasharray:none;stroke-opacity:1"
           id="path278" />
      </g>
      <g
         id="g280"
         transform="matrix(-1,-0.991363,0.991363,-1,0,0)">
        <path
           d="m -287.401,227.837 c 0.001,2.452 -1.989,4.44 -4.439,4.439 -2.452,10e-4 -4.44,-1.989 -4.441,-4.441 0.001,-2.45 2.044,-4.44 4.441,-4.437 2.452,-0.001 4.44,1.988 4.439,4.439 z"
           style="fill:#de87cd;fill-opacity:1;fill-rule:evenodd;stroke:#de87cd;stroke-width:1.18416;stroke-linecap:butt;stroke-linejoin:miter;stroke-miterlimit:4;stroke-dasharray:none;stroke-opacity:1"
           id="path282" />
      </g>
      <g
         id="g284"
         transform="matrix(-1,0.011656,-0.011656,-1,0,0)">
        <path
           d="m -466.58,-67.509 c -0.001,3.453 -2.804,6.253 -6.253,6.252 -3.453,0.002 -6.252,-2.8 -6.255,-6.249 0.001,-3.453 2.877,-6.256 6.252,-6.255 3.454,10e-4 6.253,2.803 6.256,6.252 z"
           style="fill:#de87cd;fill-opacity:1;fill-rule:evenodd;stroke:#de87cd;stroke-width:1.66733;stroke-linecap:butt;stroke-linejoin:miter;stroke-miterlimit:4;stroke-dasharray:none;stroke-opacity:1"
           id="path286" />
      </g>
      <g
         id="g288"
         transform="matrix(-0.988412,1,-1,-0.988412,0,0)">
        <path
           d="m -178.685,-248.522 c -0.001,2.454 -1.993,4.446 -4.448,4.447 -2.454,0 -4.448,-1.994 -4.447,-4.448 0,-2.454 2.045,-4.447 4.448,-4.447 2.453,0 4.445,1.992 4.447,4.448 z"
           style="fill:#de87cd;fill-opacity:1;fill-rule:evenodd;stroke:#de87cd;stroke-width:1.18591;stroke-linecap:butt;stroke-linejoin:miter;stroke-miterlimit:4;stroke-dasharray:none;stroke-opacity:1"
           id="path290" />
      </g>
      <g
         id="g292"
         transform="rotate(90)">
        <path
           d="m 105.973,-429.535 c 0,3.453 -2.801,6.254 -6.254,6.254 -3.449,0 -6.254,-2.801 -6.254,-6.254 0,-3.449 2.879,-6.25 6.254,-6.25 3.453,0 6.254,2.801 6.254,6.25 z"
           style="fill:#de87cd;fill-opacity:1;fill-rule:evenodd;stroke:#de87cd;stroke-width:1.66744;stroke-linecap:butt;stroke-linejoin:miter;stroke-miterlimit:4;stroke-dasharray:none;stroke-opacity:1"
           id="path294" />
      </g>
      <g
         id="g296"
         transform="rotate(90)">
        <path
           d="m 141.68,-429.535 c 0,3.453 -2.801,6.254 -6.25,6.254 -3.453,0 -6.254,-2.801 -6.254,-6.254 0,-3.449 2.875,-6.25 6.254,-6.25 3.449,0 6.25,2.801 6.25,6.25 z"
           style="fill:#de87cd;fill-opacity:1;fill-rule:evenodd;stroke:#de87cd;stroke-width:1.66744;stroke-linecap:butt;stroke-linejoin:miter;stroke-miterlimit:4;stroke-dasharray:none;stroke-opacity:1"
           id="path298" />
      </g>
      <g
         id="g300"
         transform="matrix(-0.995343,1,-1,-0.995343,0,0)">
        <path
           d="m -124.122,-301.577 c 0,2.445 -1.986,4.429 -4.431,4.43 -2.449,0 -4.433,-1.986 -4.433,-4.431 10e-4,-2.447 2.04,-4.434 4.432,-4.432 2.446,0 4.432,1.984 4.432,4.433 z"
           style="fill:#de87cd;fill-opacity:1;fill-rule:evenodd;stroke:#de87cd;stroke-width:1.18181;stroke-linecap:butt;stroke-linejoin:miter;stroke-miterlimit:4;stroke-dasharray:none;stroke-opacity:1"
           id="path302" />
      </g>
      <g
         id="g304"
         transform="matrix(-1,0.0046677,-0.0046677,-1,0,0)">
        <path
           d="m -384.303,-173.622 c 0,3.453 -2.802,6.253 -6.252,6.252 -3.453,0 -6.252,-2.799 -6.252,-6.252 0.001,-3.453 2.873,-6.252 6.252,-6.252 3.449,0.001 6.253,2.799 6.252,6.252 z"
           style="fill:#de87cd;fill-opacity:1;fill-rule:evenodd;stroke:#de87cd;stroke-width:1.66742;stroke-linecap:butt;stroke-linejoin:miter;stroke-miterlimit:4;stroke-dasharray:none;stroke-opacity:1"
           id="path306" />
      </g>
      <g
         id="g308"
         transform="matrix(-1,0.0046677,-0.0046677,-1,0,0)">
        <path
           d="m -346.135,-173.623 c 0,3.453 -2.803,6.252 -6.252,6.256 -3.453,-0.001 -6.252,-2.803 -6.252,-6.256 0.001,-3.449 2.877,-6.252 6.252,-6.252 3.453,0 6.253,2.802 6.252,6.252 z"
           style="fill:#de87cd;fill-opacity:1;fill-rule:evenodd;stroke:#de87cd;stroke-width:1.66742;stroke-linecap:butt;stroke-linejoin:miter;stroke-miterlimit:4;stroke-dasharray:none;stroke-opacity:1"
           id="path310" />
      </g>
      <g
         id="g312"
         transform="matrix(-1,0.0046677,-0.0046677,-1,0,0)">
        <path
           d="m -307.967,-173.621 c 0,3.449 -2.799,6.252 -6.252,6.252 -3.453,-0.001 -6.252,-2.803 -6.252,-6.252 10e-4,-3.453 2.877,-6.252 6.252,-6.252 3.453,-0.003 6.253,2.799 6.252,6.252 z"
           style="fill:#de87cd;fill-opacity:1;fill-rule:evenodd;stroke:#de87cd;stroke-width:1.66742;stroke-linecap:butt;stroke-linejoin:miter;stroke-miterlimit:4;stroke-dasharray:none;stroke-opacity:1"
           id="path314" />
      </g>
      <g
         id="g316"
         transform="matrix(-1,0.999735,-0.999735,-1,0,0)">
        <path
           d="m -47.878,-224.619 c -0.002,2.44 -1.982,4.421 -4.424,4.421 -2.44,-0.002 -4.421,-1.982 -4.421,-4.424 0.002,-2.44 2.033,-4.421 4.422,-4.419 2.442,0 4.423,1.98 4.423,4.422 z"
           style="fill:#de87cd;fill-opacity:1;fill-rule:evenodd;stroke:#de87cd;stroke-width:1.17921;stroke-linecap:butt;stroke-linejoin:miter;stroke-miterlimit:4;stroke-dasharray:none;stroke-opacity:1"
           id="path318" />
      </g>
      <g
         id="g320"
         transform="matrix(-0.00493309,1,-1,-0.00493309,0,0)">
        <path
           d="m 212.497,-277.705 c 0.002,3.454 -2.801,6.253 -6.25,6.254 -3.453,-0.003 -6.256,-2.801 -6.254,-6.254 -0.001,-3.45 2.876,-6.253 6.251,-6.254 3.453,0.003 6.256,2.801 6.253,6.254 z"
           style="fill:#de87cd;fill-opacity:1;fill-rule:evenodd;stroke:#de87cd;stroke-width:1.66742;stroke-linecap:butt;stroke-linejoin:miter;stroke-miterlimit:4;stroke-dasharray:none;stroke-opacity:1"
           id="path322" />
      </g>
      <path
         d="m 254.355,305.031 c -6.98,-9.789 -12.089,-20.73 -17.949,-31.191 2.285,-2.735 5.543,-4.692 9.215,-4.567 2.07,-0.058 4.141,-0.062 6.211,-0.089 1.891,5.644 3.496,11.39 5.496,16.996 15.953,-16.891 30.707,-35.118 48.852,-49.778 3.457,-2.523 7.382,-4.472 11.191,-6.32 -2.758,3.852 -6.297,7.262 -9.359,10.941 -15.039,16.715 -29.098,34.379 -41.086,53.43 -2.735,4.027 -5.504,8.051 -8.664,11.766 -1.27,-0.215 -3.067,0.625 -3.684,-0.891 l -0.133,-0.18 z"
         style="fill:#30b808;fill-opacity:1;fill-rule:nonzero;stroke:none"
         id="path324" />
      <g
         id="g326">
        <path
           d="m 239.141,291.387 c -40.789,-45.649 -2.75,-79.227 47.3,-60.957"
           style="fill:none;stroke:#30b808;stroke-width:2.83465;stroke-linecap:round;stroke-linejoin:round;stroke-miterlimit:4;stroke-dasharray:none;stroke-opacity:1"
           id="path328" />
      </g>
      <path
         d="m 285.793,224.766 11.434,9.601 -14.934,-0.015 c 3.418,-1.918 4.875,-5.911 3.5,-9.586 z"
         style="fill:#30b808;fill-opacity:1;fill-rule:evenodd;stroke:none"
         id="path330" />
      <g
         id="g332">
        <path
           d="m 316.121,244.297 c 25.285,17.668 21.586,74.586 -31.476,60.211"
           style="fill:none;stroke:#30b808;stroke-width:2.83465;stroke-linecap:round;stroke-linejoin:round;stroke-miterlimit:4;stroke-dasharray:none;stroke-opacity:1"
           id="path334" />
      </g>
      <path
         d="m 285.988,311.164 -14.535,-10.23 17.711,-1.493 c -3.855,2.621 -5.176,7.5 -3.176,11.723 z"
         style="fill:#30b808;fill-opacity:1;fill-rule:evenodd;stroke:none"
         id="path336" />
      <g
         id="g338"
         transform="matrix(-1,-0.00288208,0.00288208,-1,0,0)">
        <path
           d="m -114.917,-60.548 c -0.001,3.45 -2.802,6.251 -6.255,6.253 -3.449,-0.002 -6.25,-2.803 -6.253,-6.256 0.002,-3.449 2.877,-6.25 6.252,-6.252 3.453,0.002 6.254,2.802 6.256,6.255 z"
           style="fill:#de87cd;fill-opacity:1;fill-rule:evenodd;stroke:#de87cd;stroke-width:1.66743;stroke-linecap:butt;stroke-linejoin:miter;stroke-miterlimit:4;stroke-dasharray:none;stroke-opacity:1"
           id="path340" />
      </g>
      <g
         id="g342"
         transform="matrix(-1,-0.00288208,0.00288208,-1,0,0)">
        <path
           d="m -73.717,-60.549 c -0.002,3.453 -2.803,6.254 -6.252,6.252 -3.453,0.002 -6.254,-2.802 -6.256,-6.251 10e-4,-3.453 2.876,-6.255 6.255,-6.253 3.449,-0.002 6.25,2.799 6.253,6.252 z"
           style="fill:#de87cd;fill-opacity:1;fill-rule:evenodd;stroke:#de87cd;stroke-width:1.66743;stroke-linecap:butt;stroke-linejoin:miter;stroke-miterlimit:4;stroke-dasharray:none;stroke-opacity:1"
           id="path344" />
      </g>
      <g
         id="g346"
         transform="matrix(-0.994122,1,-1,-0.994122,0,0)">
        <path
           d="m 15.645,-49.741 c 0.001,2.449 -1.985,4.435 -4.432,4.434 -2.449,0 -4.435,-1.986 -4.436,-4.435 0,-2.448 2.041,-4.434 4.435,-4.435 2.446,10e-4 4.433,1.988 4.433,4.436 z"
           style="fill:#de87cd;fill-opacity:1;fill-rule:evenodd;stroke:#de87cd;stroke-width:1.18253;stroke-linecap:butt;stroke-linejoin:miter;stroke-miterlimit:4;stroke-dasharray:none;stroke-opacity:1"
           id="path348" />
      </g>
      <g
         id="g350"
         transform="matrix(-0.0063959,1,-1,-0.0063959,0,0)">
        <path
           d="m 114.328,-39.704 c -0.001,3.449 -2.8,6.252 -6.253,6.251 -3.453,-10e-4 -6.252,-2.8 -6.251,-6.253 -0.002,-3.449 2.874,-6.253 6.253,-6.251 3.449,-0.002 6.252,2.8 6.251,6.253 z"
           style="fill:#de87cd;fill-opacity:1;fill-rule:evenodd;stroke:#de87cd;stroke-width:1.66741;stroke-linecap:butt;stroke-linejoin:miter;stroke-miterlimit:4;stroke-dasharray:none;stroke-opacity:1"
           id="path352" />
      </g>
      <g
         id="g354"
         transform="matrix(-0.0121347,1,-1,-0.0121347,0,0)">
        <path
           d="m 158.766,-39.899 c -0.001,3.449 -2.803,6.249 -6.252,6.251 -3.454,-10e-4 -6.253,-2.803 -6.256,-6.252 10e-4,-3.453 2.877,-6.253 6.252,-6.255 3.453,10e-4 6.253,2.803 6.256,6.256 z"
           style="fill:#de87cd;fill-opacity:1;fill-rule:evenodd;stroke:#de87cd;stroke-width:1.66732;stroke-linecap:butt;stroke-linejoin:miter;stroke-miterlimit:4;stroke-dasharray:none;stroke-opacity:1"
           id="path356" />
      </g>
      <g
         id="g358"
         transform="matrix(-0.00269907,1,-1,-0.00269907,0,0)">
        <path
           d="m 206.099,-38.463 c 0.002,3.45 -2.799,6.254 -6.252,6.252 -3.45,10e-4 -6.25,-2.8 -6.252,-6.253 -0.001,-3.449 2.878,-6.254 6.253,-6.251 3.453,-0.002 6.254,2.799 6.251,6.252 z"
           style="fill:#de87cd;fill-opacity:1;fill-rule:evenodd;stroke:#de87cd;stroke-width:1.66743;stroke-linecap:butt;stroke-linejoin:miter;stroke-miterlimit:4;stroke-dasharray:none;stroke-opacity:1"
           id="path360" />
      </g>
      <g
         id="g362"
         transform="matrix(-0.00269907,1,-1,-0.00269907,0,0)">
        <path
           d="m 253.056,-38.464 c 0.002,3.453 -2.799,6.253 -6.252,6.255 -3.45,-0.003 -6.254,-2.804 -6.252,-6.253 -0.001,-3.453 2.874,-6.254 6.253,-6.255 3.449,0.002 6.254,2.804 6.251,6.253 z"
           style="fill:#de87cd;fill-opacity:1;fill-rule:evenodd;stroke:#de87cd;stroke-width:1.66743;stroke-linecap:butt;stroke-linejoin:miter;stroke-miterlimit:4;stroke-dasharray:none;stroke-opacity:1"
           id="path364" />
      </g>
      <g
         id="g366"
         transform="matrix(-0.00269907,1,-1,-0.00269907,0,0)">
        <path
           d="m 300.013,-38.462 c -0.002,3.449 -2.803,6.254 -6.252,6.251 -3.453,0.002 -6.254,-2.799 -6.255,-6.252 0.002,-3.454 2.877,-6.254 6.252,-6.252 3.453,-10e-4 6.254,2.8 6.255,6.253 z"
           style="fill:#de87cd;fill-opacity:1;fill-rule:evenodd;stroke:#de87cd;stroke-width:1.66743;stroke-linecap:butt;stroke-linejoin:miter;stroke-miterlimit:4;stroke-dasharray:none;stroke-opacity:1"
           id="path368" />
      </g>
      <g
         id="g370"
         transform="matrix(-0.00269907,1,-1,-0.00269907,0,0)">
        <path
           d="m 346.97,-38.464 c -0.002,3.453 -2.803,6.254 -6.252,6.255 -3.453,-0.002 -6.254,-2.803 -6.255,-6.252 -0.002,-3.453 2.877,-6.254 6.252,-6.255 3.453,0.002 6.254,2.803 6.255,6.252 z"
           style="fill:#de87cd;fill-opacity:1;fill-rule:evenodd;stroke:#de87cd;stroke-width:1.66743;stroke-linecap:butt;stroke-linejoin:miter;stroke-miterlimit:4;stroke-dasharray:none;stroke-opacity:1"
           id="path372" />
      </g>
      <g
         id="g374"
         transform="matrix(-0.00269907,1,-1,-0.00269907,0,0)">
        <path
           d="m 393.924,-38.462 c 0.001,3.45 -2.8,6.25 -6.253,6.252 -3.449,10e-4 -6.254,-2.8 -6.251,-6.253 -0.002,-3.453 2.873,-6.254 6.252,-6.251 3.449,-0.002 6.254,2.799 6.252,6.252 z"
           style="fill:#de87cd;fill-opacity:1;fill-rule:evenodd;stroke:#de87cd;stroke-width:1.66743;stroke-linecap:butt;stroke-linejoin:miter;stroke-miterlimit:4;stroke-dasharray:none;stroke-opacity:1"
           id="path376" />
      </g>
      <g
         id="g378"
         transform="matrix(-0.00269907,1,-1,-0.00269907,0,0)">
        <path
           d="m 440.881,-38.463 c 0.001,3.453 -2.8,6.253 -6.253,6.251 -3.453,0.001 -6.254,-2.8 -6.251,-6.253 -0.002,-3.449 2.873,-6.25 6.252,-6.251 3.45,-0.002 6.25,2.799 6.252,6.253 z"
           style="fill:#de87cd;fill-opacity:1;fill-rule:evenodd;stroke:#de87cd;stroke-width:1.66743;stroke-linecap:butt;stroke-linejoin:miter;stroke-miterlimit:4;stroke-dasharray:none;stroke-opacity:1"
           id="path380" />
      </g>
      <g
         id="g382"
         transform="matrix(1,0.989959,-0.989959,1,0,0)">
        <path
           d="m 264.043,224.694 c 0.002,2.452 -1.989,4.442 -4.441,4.443 -2.454,0 -4.444,-1.991 -4.445,-4.443 0,-2.453 2.044,-4.445 4.443,-4.445 2.454,0.001 4.444,1.991 4.443,4.445 z"
           style="fill:#de87cd;fill-opacity:1;fill-rule:evenodd;stroke:#de87cd;stroke-width:1.18499;stroke-linecap:butt;stroke-linejoin:miter;stroke-miterlimit:4;stroke-dasharray:none;stroke-opacity:1"
           id="path384" />
      </g>
      <g
         id="g386"
         transform="matrix(1,-0.0127925,0.0127925,1,0,0)">
        <path
           d="m 77.81,482.085 c -0.002,3.449 -2.803,6.25 -6.256,6.252 -3.449,-10e-4 -6.25,-2.802 -6.252,-6.252 10e-4,-3.453 2.877,-6.252 6.255,-6.252 3.45,-0.002 6.25,2.799 6.253,6.252 z"
           style="fill:#de87cd;fill-opacity:1;fill-rule:evenodd;stroke:#de87cd;stroke-width:1.6673;stroke-linecap:butt;stroke-linejoin:miter;stroke-miterlimit:4;stroke-dasharray:none;stroke-opacity:1"
           id="path388" />
      </g>
      <g
         id="g390"
         transform="matrix(0.987289,-1,1,0.987289,0,0)">
        <path
           d="m -179.813,300.203 c 0,2.457 -1.994,4.449 -4.451,4.449 -2.457,0 -4.449,-1.994 -4.447,-4.449 -0.002,-2.455 2.045,-4.449 4.447,-4.449 2.457,0 4.451,1.992 4.451,4.449 z"
           style="fill:#de87cd;fill-opacity:1;fill-rule:evenodd;stroke:#de87cd;stroke-width:1.18658;stroke-linecap:butt;stroke-linejoin:miter;stroke-miterlimit:4;stroke-dasharray:none;stroke-opacity:1"
           id="path392" />
      </g>
      <g
         id="g394"
         transform="matrix(-0.00975425,-1,1,-0.00975425,0,0)">
        <path
           d="m -441.299,113.918 c -0.002,3.449 -2.803,6.25 -6.252,6.252 -3.453,-0.003 -6.254,-2.804 -6.255,-6.253 0.002,-3.453 2.877,-6.253 6.252,-6.251 3.453,-0.002 6.254,2.799 6.255,6.252 z"
           style="fill:#de87cd;fill-opacity:1;fill-rule:evenodd;stroke:#de87cd;stroke-width:1.66736;stroke-linecap:butt;stroke-linejoin:miter;stroke-miterlimit:4;stroke-dasharray:none;stroke-opacity:1"
           id="path396" />
      </g>
      <g
         id="g398"
         transform="rotate(-89.959971)">
        <path
           d="m -402.105,117.824 c 0.002,3.453 -2.801,6.256 -6.254,6.254 -3.449,-0.001 -6.252,-2.8 -6.25,-6.253 -0.002,-3.449 2.874,-6.252 6.253,-6.251 3.45,-0.002 6.252,2.801 6.251,6.25 z"
           style="fill:#de87cd;fill-opacity:1;fill-rule:evenodd;stroke:#de87cd;stroke-width:1.66744;stroke-linecap:butt;stroke-linejoin:miter;stroke-miterlimit:4;stroke-dasharray:none;stroke-opacity:1"
           id="path400" />
      </g>
      <g
         id="g402"
         transform="matrix(1,-0.98699,0.98699,1,0,0)">
        <path
           d="m -122.108,248.066 c 0,2.458 -1.992,4.452 -4.45,4.453 -2.455,-0.002 -4.45,-1.994 -4.45,-4.452 0,-2.457 2.049,-4.45 4.451,-4.45 2.456,0.002 4.45,1.994 4.449,4.449 z"
           style="fill:#de87cd;fill-opacity:1;fill-rule:evenodd;stroke:#de87cd;stroke-width:1.18675;stroke-linecap:butt;stroke-linejoin:miter;stroke-miterlimit:4;stroke-dasharray:none;stroke-opacity:1"
           id="path404" />
      </g>
      <g
         id="g406"
         transform="matrix(1,-0.00809286,0.00809286,1,0,0)">
        <path
           d="m 152.286,373.92 c 0,3.453 -2.804,6.255 -6.253,6.254 -3.453,-10e-4 -6.255,-2.801 -6.254,-6.254 0,-3.453 2.878,-6.254 6.253,-6.254 3.453,10e-4 6.251,2.801 6.254,6.254 z"
           style="fill:#de87cd;fill-opacity:1;fill-rule:evenodd;stroke:#de87cd;stroke-width:1.66738;stroke-linecap:butt;stroke-linejoin:miter;stroke-miterlimit:4;stroke-dasharray:none;stroke-opacity:1"
           id="path408" />
      </g>
      <g
         id="g410"
         transform="matrix(0.986647,-1,1,0.986647,0,0)">
        <path
           d="m -95.429,276.307 c -0.001,2.458 -1.996,4.45 -4.452,4.451 -2.458,0 -4.452,-1.994 -4.451,-4.452 10e-4,-2.457 2.049,-4.451 4.452,-4.451 2.456,-0.001 4.452,1.994 4.451,4.452 z"
           style="fill:#de87cd;fill-opacity:1;fill-rule:evenodd;stroke:#de87cd;stroke-width:1.18695;stroke-linecap:butt;stroke-linejoin:miter;stroke-miterlimit:4;stroke-dasharray:none;stroke-opacity:1"
           id="path412" />
      </g>
      <g
         id="g414"
         transform="matrix(0.00419913,-1,1,0.00419913,0,0)">
        <path
           d="m -313.093,178.834 c -10e-4,3.453 -2.802,6.254 -6.251,6.253 -3.453,-10e-4 -6.254,-2.802 -6.253,-6.251 -0.002,-3.453 2.876,-6.254 6.251,-6.253 3.454,-0.003 6.254,2.802 6.253,6.251 z"
           style="fill:#de87cd;fill-opacity:1;fill-rule:evenodd;stroke:#de87cd;stroke-width:1.66742;stroke-linecap:butt;stroke-linejoin:miter;stroke-miterlimit:4;stroke-dasharray:none;stroke-opacity:1"
           id="path416" />
      </g>
      <g
         id="g418"
         transform="matrix(0.0134661,-1,1,0.0134661,0,0)">
        <path
           d="m -261.396,181.77 c 0,3.453 -2.803,6.253 -6.252,6.252 -3.453,0 -6.252,-2.798 -6.256,-6.252 10e-4,-3.449 2.877,-6.249 6.256,-6.252 3.449,0.001 6.252,2.803 6.252,6.252 z"
           style="fill:#de87cd;fill-opacity:1;fill-rule:evenodd;stroke:#de87cd;stroke-width:1.66729;stroke-linecap:butt;stroke-linejoin:miter;stroke-miterlimit:4;stroke-dasharray:none;stroke-opacity:1"
           id="path420" />
      </g>
      <g
         id="g422"
         transform="matrix(0.00602989,-1,1,0.00602989,0,0)">
        <path
           d="m -212.757,180.162 c -0.003,3.449 -2.803,6.251 -6.256,6.252 -3.449,0.002 -6.251,-2.802 -6.252,-6.255 -0.001,-3.449 2.876,-6.252 6.255,-6.252 3.449,0.002 6.251,2.802 6.253,6.255 z"
           style="fill:#de87cd;fill-opacity:1;fill-rule:evenodd;stroke:#de87cd;stroke-width:1.66741;stroke-linecap:butt;stroke-linejoin:miter;stroke-miterlimit:4;stroke-dasharray:none;stroke-opacity:1"
           id="path424" />
      </g>
      <g
         id="g426"
         transform="matrix(0.986586,-1,1,0.986586,0,0)">
        <path
           d="m 6.863,176.393 c -0.001,2.458 -1.994,4.452 -4.452,4.451 -2.456,0.001 -4.452,-1.994 -4.451,-4.452 -0.002,-2.456 2.047,-4.45 4.45,-4.449 2.458,10e-4 4.452,1.994 4.453,4.45 z"
           style="fill:#de87cd;fill-opacity:1;fill-rule:evenodd;stroke:#de87cd;stroke-width:1.18699;stroke-linecap:butt;stroke-linejoin:miter;stroke-miterlimit:4;stroke-dasharray:none;stroke-opacity:1"
           id="path428" />
      </g>
      <g
         id="g430"
         transform="rotate(-0.00800508)">
        <path
           d="m 216.359,171.265 c -0.001,3.453 -2.802,6.253 -6.255,6.253 -3.449,0.003 -6.25,-2.798 -6.253,-6.251 0.001,-3.453 2.88,-6.254 6.255,-6.253 3.453,0 6.253,2.801 6.253,6.251 z"
           style="fill:#de87cd;fill-opacity:1;fill-rule:evenodd;stroke:#de87cd;stroke-width:1.66744;stroke-linecap:butt;stroke-linejoin:miter;stroke-miterlimit:4;stroke-dasharray:none;stroke-opacity:1"
           id="path432" />
      </g>
      <g
         id="g434"
         transform="matrix(1,0.0118195,-0.0118195,1,0,0)">
        <path
           d="m 250.475,168.731 c 0.001,3.449 -2.801,6.252 -6.254,6.25 -3.45,0.001 -6.252,-2.801 -6.25,-6.251 -0.002,-3.453 2.875,-6.252 6.25,-6.253 3.453,0.002 6.252,2.801 6.254,6.254 z"
           style="fill:#de87cd;fill-opacity:1;fill-rule:evenodd;stroke:#de87cd;stroke-width:1.66732;stroke-linecap:butt;stroke-linejoin:miter;stroke-miterlimit:4;stroke-dasharray:none;stroke-opacity:1"
           id="path436" />
      </g>
      <path
         d="m 197.891,445.5 c -0.203,0.473 -7.032,15.449 -15.176,33.281 -8.141,17.832 -14.863,32.617 -14.93,32.86 -0.121,0.406 0.192,0.441 4.098,0.441 h 4.226 l 3.711,-8.172 3.711,-8.168 14.766,0.063 14.769,0.066 7.305,16.086 4.305,0.066 4.301,0.071 -0.348,-0.824 c -0.191,-0.454 -6.906,-15.188 -14.914,-32.743 -8.012,-17.554 -14.77,-32.359 -15.012,-32.902 l -0.445,-0.984 z m 143.984,32.566 c -8.363,18.336 -15.262,33.496 -15.332,33.684 -0.109,0.281 0.621,0.332 4.172,0.273 l 4.301,-0.066 3.461,-7.668 c 1.902,-4.215 3.582,-7.863 3.73,-8.105 0.25,-0.411 1.231,-0.438 14.859,-0.438 11.375,0 14.649,0.066 14.84,0.313 0.137,0.171 1.836,3.82 3.774,8.105 l 3.523,7.793 4.258,0.066 c 2.344,0.039 4.262,0.012 4.262,-0.062 0,-0.125 -30.133,-66.301 -30.477,-66.922 -0.098,-0.18 -6.746,14.098 -15.371,33.027 z m -63.156,-26.933 v 3.644 h 5.937 c 9.586,0 14.696,0.571 19.465,2.164 2.598,0.868 5.817,2.551 7.93,4.153 4.125,3.125 6.797,7.976 7.808,14.168 0.579,3.535 0.379,8.437 -0.476,11.738 -0.781,3.023 -2.485,6.395 -4.363,8.641 -1.633,1.949 -4.196,3.996 -6.551,5.234 -2.231,1.168 -5.559,2.309 -8.453,2.895 -3.028,0.613 -7.356,1.019 -10.86,1.023 h -2.687 v -32.926 h -7.75 v 40.258 l 9.562,-0.113 c 7.235,-0.09 10.219,-0.219 12.262,-0.539 6.652,-1.035 12.512,-3.539 17.176,-7.328 2.801,-2.274 5.515,-5.7 7.23,-9.11 1.258,-2.512 2.453,-6.453 2.914,-9.594 0.317,-2.195 0.383,-3.832 0.278,-6.789 -0.168,-4.574 -0.77,-7.746 -2.172,-11.496 -2.082,-5.558 -5.52,-9.933 -10.5,-13.371 -2.223,-1.535 -5.688,-3.168 -8.762,-4.129 -5.578,-1.742 -9.543,-2.16 -20.426,-2.164 l -7.562,-0.004 z m -41.082,-2.887 c -1.106,0.336 -2.379,1.442 -2.949,2.566 -0.415,0.817 -0.504,1.368 -0.422,2.622 0.109,1.757 0.492,2.445 2.054,3.718 0.856,0.696 1.106,0.766 2.75,0.766 1.555,0 1.953,-0.098 2.848,-0.691 1.098,-0.731 1.898,-2.012 2.172,-3.489 0.262,-1.402 -0.289,-2.961 -1.461,-4.14 -1.41,-1.418 -3.18,-1.899 -4.992,-1.352 z m 21.488,0.113 c -1.164,0.418 -2.242,1.411 -2.789,2.571 -0.504,1.07 -0.524,3.32 -0.035,4.269 0.519,1.012 1.648,2.102 2.597,2.504 1.188,0.504 2.993,0.422 4.258,-0.191 1.254,-0.61 2.246,-1.95 2.594,-3.504 0.352,-1.582 -0.262,-3.449 -1.512,-4.586 -0.984,-0.891 -2.336,-1.438 -3.519,-1.418 -0.344,0.004 -1.063,0.164 -1.594,0.355 z m -55.047,27.164 5.61,12.805 -11.278,0.067 c -6.199,0.035 -11.324,0.015 -11.387,-0.051 -0.089,-0.09 4.848,-11.555 10.774,-25.02 0.277,-0.625 0.539,-1.015 0.586,-0.871 0.051,0.145 2.613,6.027 5.695,13.07 z m 158.758,-0.168 c 3.098,7.09 5.633,12.938 5.633,12.997 0,0.058 -5.129,0.105 -11.403,0.105 -9.019,0 -11.375,-0.066 -11.277,-0.316 0.598,-1.536 11.285,-25.801 11.344,-25.746 0.039,0.039 2.605,5.871 5.703,12.96 z m -127.453,-3.32 c -0.09,0.094 -0.168,9.141 -0.168,20.106 v 19.941 h 7.75 v -40.215 h -3.707 c -2.039,0 -3.781,0.078 -3.875,0.168 z m 21.586,19.938 v 20.109 h 7.75 v -40.215 h -7.75 z"
         style="fill:#501644;fill-opacity:1;fill-rule:evenodd;stroke:none"
         id="path438" />
      <g
         id="g440"
         transform="scale(1,0.998227)">
        <path
           d="m 202.25,169.332 c 0,20.736 -27.504,28.844 -61.395,28.844 -33.89,0 -61.765,-7.737 -61.765,-28.477 0,-1.792 0.578,-3.925 0.976,-5.65 4.2,-18.24 29.832,-32.284 60.789,-32.284 33.083,0 60.11,15.931 61.352,36.158"
           style="fill:#000000;fill-opacity:1;fill-rule:evenodd;stroke:#000000;stroke-width:0.525466;stroke-linecap:butt;stroke-linejoin:miter;stroke-miterlimit:4;stroke-dasharray:none;stroke-opacity:1"
           id="path442" />
      </g>
      <g
         id="g444"
         transform="scale(1,0.998227)">
        <path
           d="m 201.59,171.519 c 1.137,1.35 -6.074,14.264 -12.281,15.696 -7.016,1.616 -14.149,-9.051 -20.649,-8.817 -10.637,0.384 -15.644,11.9 -27.504,11.9 -14.871,0 -20.699,-18.223 -29.746,-11.9 -8.789,6.148 -14.992,8.202 -17.844,7.975 -5.043,-0.403 -10.773,-7.795 -13.925,-14.294 0,20.736 31.777,36.337 59.691,27.772 25.887,10.722 62.258,-7.596 62.258,-28.332 z"
           style="fill:#de87cd;fill-opacity:1;fill-rule:evenodd;stroke:#000000;stroke-width:1.26112;stroke-linecap:butt;stroke-linejoin:miter;stroke-miterlimit:4;stroke-dasharray:none;stroke-opacity:1"
           id="path446" />
      </g>
      <g
         id="g448"
         transform="scale(1,0.998227)">
        <path
           d="m 201.871,170.525 c 1.137,-1.35 -2.234,-9.11 -12.562,-9.525 -11.176,-0.45 -14.43,7.365 -20.93,7.13 -10.633,-0.383 -15.641,-11.896 -27.504,-11.896 -14.871,0 -20.996,12.64 -29.742,11.896 -4.77,-0.403 -13.602,-6.23 -18.688,-6.57 -3.468,-0.235 -11.894,-0.9 -12.804,7.282 0,-10.366 5.132,-22.473 16.793,-30.241 5.828,-3.882 16.941,-9.712 25.886,-7.634 6.063,-7.06 15.992,-5.976 19.235,-6.011 2.875,-0.031 17.355,-1.37 19.039,5.991 7.301,-2.79 19.156,3.616 24.886,7.815 11.461,8.393 17.372,22.097 16.391,31.763 z"
           style="fill:#de87cd;fill-opacity:1;fill-rule:evenodd;stroke:#000000;stroke-width:1.05094;stroke-linecap:butt;stroke-linejoin:miter;stroke-miterlimit:4;stroke-dasharray:none;stroke-opacity:1"
           id="path450" />
      </g>
      <path
         d="m 114.812,191.383 c 1.59,6.387 5.813,11.98 5.668,11.863 -1.195,-0.98 -0.464,-4.887 -2.054,-11.273 -1.59,-6.387 -2.168,-11.7 -3.707,-11.864 -1.504,-0.156 -1.508,4.618 -0.012,10.84"
         style="fill:#501644;fill-opacity:1;fill-rule:evenodd;stroke:none"
         id="path452" />
      <path
         d="m 140.266,194.297 c -8.161,0.445 -19.321,-9.746 -20.418,-12.051 -1.098,-2.308 12.199,9.883 20.367,9.566 8.824,-0.339 20.441,-11.242 21.539,-8.933 1.07,2.254 -13.016,10.871 -20.934,11.387"
         style="fill:#501644;fill-opacity:1;fill-rule:evenodd;stroke:none"
         id="path454" />
      <path
         d="m 139.711,150.426 c -8.16,-0.442 -19.32,9.746 -20.418,12.054 -1.094,2.309 12.203,-9.886 20.367,-9.57 8.824,0.34 20.442,11.242 21.539,8.934 1.071,-2.25 -13.011,-10.867 -20.933,-11.383"
         style="fill:#501644;fill-opacity:1;fill-rule:evenodd;stroke:none"
         id="path456" />
      <path
         d="m 166.93,191.992 c -1.59,6.387 -5.813,11.981 -5.668,11.863 1.195,-0.98 0.465,-4.886 2.054,-11.273 1.59,-6.387 2.168,-11.699 3.707,-11.863 1.504,-0.157 1.508,4.617 0.016,10.84"
         style="fill:#501644;fill-opacity:1;fill-rule:evenodd;stroke:none"
         id="path458" />
      <path
         d="m 112.805,147.82 c 2.742,-8.195 10.027,-15.371 9.777,-15.218 -2.059,1.257 -0.801,6.269 -3.543,14.464 -2.746,8.192 -3.742,15.012 -6.398,15.219 -2.59,0.203 -2.602,-5.926 -0.02,-13.91"
         style="fill:#501644;fill-opacity:1;fill-rule:evenodd;stroke:none"
         id="path460" />
      <path
         d="m 165.098,147.82 c -2.746,-8.195 -10.028,-15.371 -9.782,-15.218 2.059,1.257 0.801,6.269 3.547,14.464 2.742,8.192 3.739,15.012 6.395,15.219 2.59,0.203 2.601,-5.926 0.019,-13.91"
         style="fill:#501644;fill-opacity:1;fill-rule:evenodd;stroke:none"
         id="path462" />
      <g
         id="g464"
         transform="matrix(-1,-0.135339,-0.170857,0.792114,0,0)">
        <path
           d="m -160.853,185.905 c -0.002,7.214 -2.223,13.078 -4.98,13.144 -2.758,0.067 -5.021,-5.685 -5.074,-12.899 -0.049,-7.209 2.128,-13.183 4.885,-13.383 2.757,-0.204 5.059,5.436 5.164,12.644"
           style="fill:#fffcff;fill-opacity:1;fill-rule:evenodd;stroke:#000000;stroke-width:0.581457;stroke-linecap:butt;stroke-linejoin:miter;stroke-miterlimit:4;stroke-dasharray:none;stroke-opacity:1"
           id="path466" />
      </g>
      <g
         id="g468"
         transform="matrix(1,-0.127895,-0.0438959,0.625575,0,0)">
        <path
           d="m 151.51,300.477 c 0,2.679 -0.779,4.861 -1.742,4.889 -0.968,0.027 -1.761,-2.114 -1.777,-4.797 -0.02,-2.682 0.745,-4.905 1.711,-4.982 0.965,-0.078 1.772,2.023 1.808,4.703"
           style="fill:#000000;fill-opacity:1;fill-rule:evenodd;stroke:#000000;stroke-width:0.666771;stroke-linecap:butt;stroke-linejoin:miter;stroke-miterlimit:4;stroke-dasharray:none;stroke-opacity:1"
           id="path470" />
      </g>
      <g
         id="g472"
         transform="matrix(1,-0.135339,0.170857,0.792114,0,0)">
        <path
           d="m 110.712,236.052 c -0.002,7.214 -2.223,13.078 -4.98,13.144 -2.759,0.071 -5.021,-5.686 -5.075,-12.895 -0.048,-7.213 2.129,-13.188 4.885,-13.387 2.758,-0.205 5.06,5.436 5.164,12.643"
           style="fill:#fffcff;fill-opacity:1;fill-rule:evenodd;stroke:#000000;stroke-width:0.581457;stroke-linecap:butt;stroke-linejoin:miter;stroke-miterlimit:4;stroke-dasharray:none;stroke-opacity:1"
           id="path474" />
      </g>
      <g
         id="g476"
         transform="matrix(-1,-0.127895,0.0438959,0.625575,0,0)">
        <path
           d="m -131.67,242.808 c 10e-4,2.685 -0.779,4.861 -1.746,4.888 -0.964,0.027 -1.757,-2.114 -1.777,-4.797 -0.016,-2.682 0.745,-4.905 1.711,-4.983 0.965,-0.071 1.772,2.024 1.812,4.704"
           style="fill:#000000;fill-opacity:1;fill-rule:evenodd;stroke:#000000;stroke-width:0.666771;stroke-linecap:butt;stroke-linejoin:miter;stroke-miterlimit:4;stroke-dasharray:none;stroke-opacity:1"
           id="path478" />
      </g>
      <path
         d="M 325.07,0.992 C 217.484,1.098 109.891,1.199 2.324,3.457 -1.203,8.773 1.859,17.684 0.832,24.332 c 0,170.391 0,340.781 0,511.172 5.309,3.539 14.234,0.445 20.879,1.465 175.164,-0.567 350.336,0.008 525.488,-1.828 8.93,-0.25 3.938,-11.317 5.215,-17.004 0,-171.348 0,-342.699 0,-514.051 C 548.387,0.555 540.793,2.922 535.406,1.738 465.305,0.699 395.18,1.09 325.07,0.992 Z M 138.199,17.355 c 2.989,13.461 1.27,27.977 2.008,41.883 0.711,19.324 -1.004,38.961 1.996,58.09 2.633,5.047 13.606,3.336 12.145,-3.519 2.101,-31.43 -0.196,-63.239 2.648,-94.504 64.281,-2.348 128.801,-1.399 193.176,-1.18 15.371,0.32 30.91,0.074 46.152,1.23 2.637,32.79 1.391,65.918 2.321,98.848 4.304,3.352 16.332,2.926 12.878,-6.023 1.61,-30.903 0.481,-61.922 2.598,-92.778 2.317,-2.992 8.027,-0.89 11.383,-1.828 35.945,0.012 71.98,-1.121 107.879,0.785 4.195,0.602 1.371,7.403 2.582,10.028 1.406,109.773 0.453,219.57 0.703,329.355 -0.383,53.469 0.644,107.231 -1.254,160.524 -1.852,3.136 -7.887,1.14 -11.176,1.996 -36.629,0.226 -73.734,0.922 -110.074,-0.762 -2.559,-33.129 -1.781,-66.551 -2.832,-99.805 -2.23,-2.343 -8.656,-3.082 -11.508,-0.527 -3.004,11.109 -0.976,23.172 -1.883,34.621 -0.843,21.516 0.891,43.488 -1.668,64.668 -10.25,2.313 -21.945,0.941 -32.742,1.629 -68.136,0.457 -136.418,1.019 -204.472,-1.27 -4.895,0.372 -1.735,-7.5 -3.059,-10.257 -1.363,-29.313 -0.238,-58.801 -2.68,-88.016 -2.918,-5.785 -13.175,-2.547 -11.672,4.133 -1.738,31.5 -0.41,63.418 -2.964,94.687 -24.375,2.309 -49.325,0.664 -73.914,1.137 -15.579,-0.258 -31.415,0.168 -46.84,-1.043 -2.121,-47.48 -0.891,-95.254 -1.344,-142.848 0.219,-116.461 -0.699,-232.933 0.816,-349.39 0.457,-3.707 -1.367,-10.414 4.688,-9.242 38.672,-1.266 77.418,-0.325 116.109,-0.622 z"
         style="fill:#501644;fill-opacity:1;fill-rule:nonzero;stroke:none"
         id="path480" />
      <path
         d="m 269.652,105.262 c -21.187,0.699 -42.644,-0.957 -63.656,2.109 -6.816,1.336 -4.391,12.715 2.309,11.949 46.004,0.946 92.086,1.332 138.07,0.145 5.352,-1.301 3.895,-8.781 3.223,-12.488 -26.52,-1.68 -53.317,-1.688 -79.946,-1.715 z"
         style="fill:#501644;fill-opacity:1;fill-rule:nonzero;stroke:none"
         id="path482" />
      <path
         d="m 469.445,105.359 c -4.972,0.875 -14.664,-1.507 -15.629,5.586 -1.05,4.711 1.719,10.41 7.34,9.133 5.793,0.906 12.664,-0.969 17.883,1.684 3.914,15.371 1.766,31.765 2.523,47.562 0.422,17.563 -0.695,35.383 1.129,52.801 2.957,4.91 11.278,1.305 9.778,-4.418 1.234,-36.512 0.316,-73.07 0.605,-109.598 -4.07,-3.464 -11.527,-1.687 -17,-2.671 -2.207,-0.09 -4.418,-0.106 -6.629,-0.079 z"
         style="fill:#501644;fill-opacity:1;fill-rule:nonzero;stroke:none"
         id="path484" />
      <path
         d="m 411.039,209.695 c -5.176,-0.207 -13.785,0.692 -12.887,7.867 -1.441,5.575 4.395,7.278 8.75,6.747 8.493,-0.399 17.864,1.453 25.875,-1.621 1.528,-3.801 3.118,-12.333 -3.195,-12.258 -6.148,-0.711 -12.359,-0.828 -18.543,-0.735 z"
         style="fill:#501644;fill-opacity:1;fill-rule:nonzero;stroke:none"
         id="path486" />
      <path
         d="m 411.066,313.711 c -4.785,0.902 -14.937,-1.492 -13.027,6.277 -0.434,3.817 0.336,9.375 5.531,8.352 9.618,-0.07 19.965,1.375 29.172,-1.469 1.871,-4.176 2.992,-13.207 -4.148,-12.414 -5.813,-0.652 -11.68,-0.832 -17.528,-0.746 z"
         style="fill:#501644;fill-opacity:1;fill-rule:nonzero;stroke:none"
         id="path488" />
      <path
         d="m 264.82,417.672 c -20.457,0.383 -41.277,0.144 -61.465,2.16 -0.71,4.281 -1.316,13.789 5.801,12.289 46.059,0.5 92.219,1.106 138.235,-0.269 3.933,-2.395 3.679,-10.024 1.328,-12.637 -27.961,-0.746 -55.926,-1.692 -83.899,-1.543 z"
         style="fill:#501644;fill-opacity:1;fill-rule:nonzero;stroke:none"
         id="path490" />
      <path
         d="m 64.785,314.004 c -6.07,0.664 -3.347,9.316 -4.328,13.351 -0.09,34.055 -1.191,68.211 0.77,102.207 1.57,4.887 8.777,1.907 12.625,2.985 7.914,-0.82 17.539,2.32 24.406,-2.629 3.5,-4.871 -0.074,-12.125 -6.262,-11.832 -5.641,-1.684 -12.605,1.484 -17.558,-1.793 -4.04,-11.473 -1.719,-24.27 -2.68,-36.227 -0.313,-21.203 -0.465,-42.41 -1.09,-63.605 -0.922,-2.18 -3.832,-2.387 -5.883,-2.457 z"
         style="fill:#501644;fill-opacity:1;fill-rule:nonzero;stroke:none"
         id="path492" />
      <path
         d="m 328.617,209.48 c -5.23,0.227 -15.758,-0.031 -14.679,7.907 -0.153,8.519 10.234,6.855 15.878,7.285 3.477,0.902 11.68,-1.422 10.586,4.586 0.684,26.773 1.563,53.832 -0.289,80.617 -1.551,4.293 -8.285,1.734 -11.746,2.738 -37.488,0.086 -75.273,1.051 -112.597,-0.601 -6.247,-0.914 -3.059,-9.922 -4.297,-14.051 0.089,-23.348 -2.121,-47.023 1.277,-70.117 1.844,-5.344 9.523,-2.547 13.766,-3.422 4.882,0.387 13.207,-0.692 12.121,-7.481 0.207,-8.367 -10.852,-6.851 -16.403,-7.351 -8.3,0.222 -16.984,0.047 -24.964,1.844 -0.594,38.011 -0.086,76.191 -0.254,114.269 4.847,4.215 13.246,1.34 19.445,2.406 45.309,0.203 90.648,0.77 135.934,-0.343 7.703,-1.961 2.164,-13.2 3.839,-19.133 0,-32.121 0,-64.242 0,-96.363 -4.109,-3.52 -11.691,-1.379 -17.179,-2.551 -3.477,-0.188 -6.957,-0.301 -10.438,-0.239 z"
         style="fill:#501644;fill-opacity:1;fill-rule:nonzero;stroke:none"
         id="path494" />
      <path
         d="m 134.844,313.75 c -5.524,0.277 -16.324,-1.031 -16.379,7.188 -1.051,6.714 6.363,7.992 11.359,7.558 7.856,-0.82 17.535,2.277 24.27,-2.816 3.336,-5.207 -0.899,-12.422 -7.227,-11.637 -3.996,-0.375 -8.015,-0.305 -12.023,-0.293 z"
         style="fill:#501644;fill-opacity:1;fill-rule:nonzero;stroke:none"
         id="path496" />
      <path
         d="m 134.844,209.605 c -5.524,0.274 -16.324,-1.031 -16.379,7.188 -1.051,6.715 6.363,7.992 11.359,7.559 7.856,-0.821 17.535,2.273 24.27,-2.817 3.336,-5.207 -0.899,-12.422 -7.227,-11.64 -3.996,-0.372 -8.015,-0.301 -12.023,-0.29 z"
         style="fill:#501644;fill-opacity:1;fill-rule:nonzero;stroke:none"
         id="path498" />
      <path
         d="m 79.074,105.504 c -5.613,0.937 -13.23,-1.188 -17.644,2.73 -1.832,37.293 -1.578,74.746 -0.719,112.086 -0.203,7.043 11.336,4.039 10.09,-2.058 2.105,-31.106 -0.801,-62.434 2.351,-93.457 0.606,-7.016 9.735,-3.461 14.278,-4.516 4.84,0.379 13.004,-0.777 11.941,-7.461 0.055,-9.922 -14.414,-6.523 -20.297,-7.324 z"
         style="fill:#501644;fill-opacity:1;fill-rule:nonzero;stroke:none"
         id="path500" />
      <path
         d="m 488.09,314.023 c -7.902,0.082 -5.809,10.016 -6.352,15.157 -0.906,28.156 1.27,56.609 -1.847,84.566 -0.942,6.324 -9.598,2.813 -13.852,3.91 -5.047,-0.383 -13.801,0.875 -12.23,7.953 -0.852,5.52 4.492,7.672 9.125,7 9.289,-0.406 19.304,1.5 28.156,-1.687 3.055,-9.68 1.094,-20.61 1.898,-30.723 -0.312,-27.726 1.074,-55.57 -0.953,-83.226 -0.242,-2.028 -1.945,-3.215 -3.945,-2.95 z"
         style="fill:#501644;fill-opacity:1;fill-rule:nonzero;stroke:none"
         id="path502" />
      <path
         d="m 492.691,28.598 c -20.929,0 -29.507,2.476 -33.289,9.609 -3.769,7.117 -5.41,47.641 -2.172,53.695 2.114,3.946 2.114,3.942 6.028,-0.605 4.969,-5.781 6.398,-5.707 10.836,0.523 4.629,6.504 7.898,6.403 13.824,-0.422 l 4.773,-5.496 4.774,5.496 c 5.926,6.825 9.285,6.926 14.094,0.422 4.597,-6.218 5.621,-6.273 10.566,-0.523 3.914,4.547 3.918,4.551 6,0.656 3.27,-6.105 1.684,-46.734 -2.098,-53.746 -3.839,-7.133 -12.433,-9.609 -33.336,-9.609 z m -6.453,18.152 c 1.981,0.211 4.11,1.867 4.457,4.223 0.41,2.754 -0.332,3.652 -3.011,3.652 -3.676,0 -6.188,-3.695 -4.434,-6.531 0.664,-1.074 1.801,-1.469 2.988,-1.344 z m 31.016,0.086 c 1.605,-0.234 2.488,1.09 2.488,3.715 0,4.601 -4.558,5.679 -6.18,1.465 -1.136,-2.961 0.067,-4.649 3.692,-5.18 z"
         style="fill:#0096de;fill-opacity:1;fill-rule:nonzero;stroke:none"
         id="path504" />
      <path
         d="m 468.98,40.188 h 54.402 V 71.684 H 468.98 Z"
         style="fill:#0096de;fill-opacity:1;fill-rule:nonzero;stroke:none"
         id="path506" />
      <path
         d="m 465.559,44.691 h 8.41 c 2.133,0 3.75,0.528 4.855,1.579 1.125,1.031 1.688,2.433 1.688,4.207 0,1.726 -0.43,3.128 -1.293,4.207 -0.864,1.054 -2.121,1.796 -3.774,2.226 l -0.039,0.145 c 1.27,0.289 2.254,0.828 2.949,1.617 0.719,0.793 1.079,1.871 1.079,3.234 0,1.153 -0.204,2.207 -0.61,3.164 -0.386,0.961 -0.937,1.785 -1.656,2.481 -0.719,0.695 -1.594,1.246 -2.625,1.656 -1.027,0.383 -2.18,0.574 -3.449,0.574 h -9.707 z m 4.527,21.711 c 1.273,0 2.289,-0.242 3.059,-0.718 0.789,-0.481 1.257,-1.235 1.398,-2.266 l 0.145,-1.008 c 0.05,-0.215 0.085,-0.43 0.109,-0.644 0.023,-0.243 0.035,-0.446 0.035,-0.614 0,-1.675 -1.102,-2.515 -3.305,-2.515 h -3.742 l -1.293,7.765 z m 1.223,-11 c 1.296,0 2.277,-0.214 2.949,-0.648 0.672,-0.43 1.101,-1.184 1.293,-2.266 l 0.179,-0.968 c 0.047,-0.168 0.075,-0.348 0.075,-0.54 0.023,-0.191 0.035,-0.371 0.035,-0.539 0,-0.863 -0.278,-1.472 -0.828,-1.832 -0.551,-0.359 -1.328,-0.539 -2.336,-0.539 h -3.129 l -1.219,7.332 z"
         style="fill:#501644;fill-opacity:1;fill-rule:nonzero;stroke:none"
         id="path508" />
      <path
         d="m 491.188,70.211 c -2.11,0 -3.954,-0.359 -5.536,-1.078 -1.558,-0.719 -2.718,-1.699 -3.488,-2.945 l 3.02,-2.879 c 0.742,1.031 1.668,1.796 2.769,2.3 1.102,0.504 2.277,0.758 3.524,0.758 1.554,0 2.742,-0.359 3.558,-1.082 0.836,-0.742 1.258,-1.758 1.258,-3.055 0,-0.91 -0.254,-1.593 -0.754,-2.046 -0.48,-0.481 -1.297,-0.852 -2.445,-1.118 l -2.555,-0.574 c -1.867,-0.406 -3.234,-1.148 -4.098,-2.226 -0.836,-1.102 -1.257,-2.446 -1.257,-4.028 0,-1.222 0.218,-2.324 0.648,-3.308 0.457,-0.981 1.09,-1.821 1.906,-2.516 0.836,-0.695 1.832,-1.223 2.981,-1.582 1.176,-0.383 2.48,-0.574 3.918,-0.574 1.941,0 3.621,0.347 5.035,1.043 1.414,0.672 2.469,1.558 3.164,2.66 l -3.094,2.73 c -0.597,-0.836 -1.34,-1.484 -2.226,-1.941 -0.864,-0.477 -1.895,-0.719 -3.094,-0.719 -1.461,0 -2.574,0.336 -3.344,1.008 -0.766,0.672 -1.148,1.582 -1.148,2.731 0,0.839 0.25,1.488 0.754,1.941 0.527,0.434 1.39,0.793 2.589,1.078 l 2.446,0.613 c 1.867,0.481 3.222,1.235 4.058,2.266 0.864,1.027 1.297,2.371 1.297,4.023 0,1.27 -0.23,2.434 -0.683,3.489 -0.434,1.031 -1.079,1.918 -1.942,2.66 -0.84,0.742 -1.871,1.328 -3.09,1.762 -1.222,0.406 -2.613,0.609 -4.171,0.609 z"
         style="fill:#501644;fill-opacity:1;fill-rule:nonzero;stroke:none"
         id="path510" />
      <path
         d="m 504.594,69.781 4.172,-25.09 h 15.851 l -0.648,3.844 h -11.25 l -1.078,6.613 h 10.785 l -0.649,3.848 h -10.785 l -1.148,6.938 h 11.25 l -0.645,3.847 z"
         style="fill:#501644;fill-opacity:1;fill-rule:nonzero;stroke:none"
         id="path512" />
      <path
         d="m 62.93,444.312 c -20.969,0.071 -29.879,2.391 -32.668,8.512 -3.282,7.207 -5.746,31.321 -4.446,43.485 1.317,12.3 4.379,15.64 8.688,9.492 3.418,-4.883 6.058,-4.512 10.476,1.461 4.848,6.562 7.301,6.371 13.235,-1.024 l 4.871,-6.074 4.641,6.074 c 5.64,7.395 7.957,7.571 13.464,1.024 5.055,-6.008 5.668,-6.09 10.555,-1.5 2.074,1.949 4.524,3.074 5.445,2.504 4.657,-2.879 3.461,-47.446 -1.523,-56.758 -2.512,-4.696 -14.16,-7.25 -32.738,-7.196 z m -14.2,27.586 c 2.614,0 3.352,0.911 2.95,3.641 -0.782,5.266 -6.434,5.645 -6.434,0.426 0,-2.985 0.922,-4.067 3.484,-4.067 z m 28.629,0.008 c 2.621,0 3.348,0.906 2.942,3.653 -0.93,6.32 -6.426,5.836 -6.426,-0.567 0,-2 1.227,-3.086 3.484,-3.086 z"
         style="fill:#ff7d17;fill-opacity:1;fill-rule:nonzero;stroke:none"
         id="path514" />
      <path
         d="M 37.344,460.496 H 88.68 v 28.828 H 37.344 Z"
         style="fill:#ff7d17;fill-opacity:1;fill-rule:nonzero;stroke:none"
         id="path516" />
      <path
         d="m 53.336,484.258 h -0.297 c -0.324,0.594 -0.676,1.16 -1.047,1.703 -0.347,0.543 -0.746,1.019 -1.195,1.434 -0.449,0.386 -0.973,0.699 -1.57,0.929 -0.575,0.235 -1.247,0.348 -2.016,0.348 -2.168,0 -3.863,-0.824 -5.082,-2.477 -1.195,-1.679 -1.793,-4.144 -1.793,-7.398 0,-2.531 0.25,-4.895 0.746,-7.09 0.5,-2.195 1.246,-4.109 2.242,-5.734 1.02,-1.629 2.278,-2.907 3.774,-3.836 1.492,-0.957 3.238,-1.434 5.23,-1.434 1.293,0 2.414,0.195 3.363,0.582 0.946,0.387 1.731,0.918 2.352,1.586 0.648,0.649 1.148,1.434 1.496,2.363 0.348,0.907 0.57,1.875 0.672,2.907 l -4.559,1.047 c -0.074,-0.567 -0.187,-1.11 -0.336,-1.629 -0.148,-0.539 -0.359,-1.02 -0.636,-1.43 -0.274,-0.414 -0.633,-0.738 -1.082,-0.969 -0.45,-0.234 -1.02,-0.351 -1.719,-0.351 -0.82,0 -1.543,0.183 -2.168,0.543 -0.621,0.336 -1.168,0.839 -1.641,1.511 -0.449,0.645 -0.836,1.434 -1.16,2.364 -0.324,0.929 -0.574,1.961 -0.746,3.097 l -0.637,3.914 c -0.074,0.465 -0.148,1.02 -0.222,1.664 -0.051,0.621 -0.075,1.153 -0.075,1.59 0,1.551 0.297,2.789 0.895,3.719 0.598,0.93 1.57,1.394 2.914,1.394 0.723,0 1.371,-0.128 1.945,-0.386 0.598,-0.285 1.106,-0.645 1.532,-1.086 0.422,-0.465 0.757,-0.992 1.007,-1.586 0.274,-0.594 0.461,-1.227 0.559,-1.899 l 0.301,-1.898 h -4.821 l 0.563,-3.641 h 9.113 l -2.242,14.098 h -4.293 z"
         style="fill:#501644;fill-opacity:1;fill-rule:nonzero;stroke:none"
         id="path518" />
      <path
         d="m 61.629,488.207 2.617,-27.039 h 4.149 l -1.645,15.652 -0.711,6.739 h 0.336 l 5.117,-16.153 h 4.598 l 0.074,16.153 H 76.5 l 1.27,-6.235 3.511,-16.156 h 4 l -6.09,27.039 h -6.316 l 0.227,-15.34 h -0.336 l -4.821,15.34 z"
         style="fill:#501644;fill-opacity:1;fill-rule:nonzero;stroke:none"
         id="path520" />
    </g>
  </g>
</svg>
